M48
;GenerationSoftware,Autodesk,EAGLE,9.6.2*%
;CreationDate,2024-01-10T16:57:25Z*%
FMAT,2
ICI,OFF
METRIC,TZ,000.000
T2C0.813
T1C0.914
%
G90
M71
T1
X8890Y58420
X8890Y73660
X13970Y58420
X13970Y73660
X19050Y54610
X3810Y54610
T2
X29210Y63500
X31750Y63500
X19050Y69850
X19050Y67310
X26670Y67310
X26670Y69850
X19050Y64770
X19050Y62230
X26670Y64770
X26670Y62230
X31750Y57150
X31750Y59690
X34290Y72390
X29210Y72390
X31750Y69850
X26670Y53340
X24130Y53340
X24130Y50800
M30