G04 EAGLE Gerber RS-274X export*
G75*
%MOMM*%
%FSLAX34Y34*%
%LPD*%
%INBottom Copper*%
%IPPOS*%
%AMOC8*
5,1,8,0,0,1.08239X$1,22.5*%
G01*
%ADD10C,0.076200*%
%ADD11P,1.732040X8X22.500000*%
%ADD12C,1.320800*%
%ADD13P,1.429621X8X112.500000*%
%ADD14P,1.539592X8X112.500000*%
%ADD15P,1.539592X8X202.500000*%
%ADD16P,1.429621X8X202.500000*%
%ADD17C,0.762000*%

G36*
X365701Y480068D02*
X365701Y480068D01*
X365768Y480065D01*
X365895Y480087D01*
X366023Y480101D01*
X366086Y480121D01*
X366152Y480132D01*
X366271Y480180D01*
X366394Y480219D01*
X366452Y480251D01*
X366514Y480276D01*
X366621Y480347D01*
X366734Y480410D01*
X366784Y480454D01*
X366840Y480490D01*
X366931Y480581D01*
X367028Y480666D01*
X367068Y480719D01*
X367115Y480766D01*
X367185Y480874D01*
X367263Y480977D01*
X367291Y481037D01*
X367328Y481093D01*
X367375Y481213D01*
X367430Y481329D01*
X367446Y481394D01*
X367470Y481456D01*
X367482Y481542D01*
X367522Y481708D01*
X367527Y481878D01*
X367539Y481965D01*
X367539Y762535D01*
X367532Y762601D01*
X367535Y762668D01*
X367513Y762795D01*
X367499Y762923D01*
X367479Y762986D01*
X367468Y763052D01*
X367420Y763171D01*
X367381Y763294D01*
X367349Y763352D01*
X367324Y763414D01*
X367253Y763521D01*
X367190Y763634D01*
X367146Y763684D01*
X367110Y763740D01*
X367019Y763831D01*
X366934Y763928D01*
X366881Y763968D01*
X366834Y764015D01*
X366726Y764085D01*
X366623Y764163D01*
X366563Y764191D01*
X366507Y764228D01*
X366387Y764275D01*
X366271Y764330D01*
X366206Y764346D01*
X366144Y764370D01*
X366058Y764382D01*
X365892Y764422D01*
X365722Y764427D01*
X365635Y764439D01*
X24765Y764439D01*
X24699Y764432D01*
X24632Y764435D01*
X24505Y764413D01*
X24377Y764399D01*
X24314Y764379D01*
X24248Y764368D01*
X24129Y764320D01*
X24006Y764281D01*
X23948Y764249D01*
X23886Y764224D01*
X23779Y764153D01*
X23666Y764090D01*
X23616Y764046D01*
X23560Y764010D01*
X23469Y763919D01*
X23372Y763834D01*
X23332Y763781D01*
X23285Y763734D01*
X23215Y763626D01*
X23137Y763523D01*
X23109Y763463D01*
X23072Y763407D01*
X23025Y763287D01*
X22970Y763171D01*
X22954Y763106D01*
X22930Y763044D01*
X22918Y762958D01*
X22878Y762792D01*
X22873Y762622D01*
X22861Y762535D01*
X22861Y481965D01*
X22868Y481899D01*
X22865Y481832D01*
X22887Y481705D01*
X22901Y481577D01*
X22921Y481514D01*
X22932Y481448D01*
X22980Y481329D01*
X23019Y481206D01*
X23051Y481148D01*
X23076Y481086D01*
X23147Y480979D01*
X23210Y480866D01*
X23254Y480816D01*
X23290Y480760D01*
X23381Y480669D01*
X23466Y480572D01*
X23519Y480532D01*
X23566Y480485D01*
X23674Y480415D01*
X23777Y480337D01*
X23837Y480309D01*
X23893Y480272D01*
X24013Y480225D01*
X24129Y480170D01*
X24194Y480154D01*
X24256Y480130D01*
X24342Y480118D01*
X24508Y480078D01*
X24678Y480073D01*
X24765Y480061D01*
X365635Y480061D01*
X365701Y480068D01*
G37*
%LPC*%
G36*
X252939Y489965D02*
X252939Y489965D01*
X251449Y490582D01*
X251338Y490615D01*
X251230Y490658D01*
X251168Y490666D01*
X251076Y490694D01*
X250782Y490719D01*
X250720Y490727D01*
X235294Y490727D01*
X233333Y491539D01*
X231565Y493308D01*
X222765Y502108D01*
X222688Y502170D01*
X222617Y502241D01*
X222537Y502293D01*
X222463Y502353D01*
X222374Y502399D01*
X222291Y502454D01*
X222202Y502489D01*
X222117Y502533D01*
X222021Y502560D01*
X221928Y502596D01*
X221856Y502606D01*
X221741Y502638D01*
X221501Y502654D01*
X221419Y502665D01*
X107651Y502665D01*
X105690Y503477D01*
X68960Y540208D01*
X68883Y540270D01*
X68812Y540341D01*
X68732Y540393D01*
X68658Y540453D01*
X68569Y540499D01*
X68486Y540554D01*
X68397Y540589D01*
X68311Y540633D01*
X68216Y540660D01*
X68123Y540696D01*
X68051Y540706D01*
X67936Y540738D01*
X67696Y540754D01*
X67614Y540765D01*
X45768Y540765D01*
X45669Y540755D01*
X45570Y540755D01*
X45476Y540735D01*
X45380Y540725D01*
X45286Y540695D01*
X45188Y540675D01*
X45100Y540636D01*
X45009Y540607D01*
X44922Y540558D01*
X44831Y540519D01*
X44773Y540474D01*
X44669Y540416D01*
X44488Y540258D01*
X44422Y540208D01*
X41677Y537463D01*
X34523Y537463D01*
X29463Y542523D01*
X29463Y549677D01*
X34523Y554737D01*
X41677Y554737D01*
X44422Y551992D01*
X44499Y551930D01*
X44569Y551859D01*
X44650Y551807D01*
X44724Y551747D01*
X44812Y551701D01*
X44896Y551646D01*
X44985Y551611D01*
X45070Y551567D01*
X45166Y551540D01*
X45259Y551504D01*
X45331Y551494D01*
X45446Y551462D01*
X45686Y551446D01*
X45768Y551435D01*
X71192Y551435D01*
X71225Y551438D01*
X71258Y551436D01*
X71419Y551458D01*
X71580Y551475D01*
X71611Y551485D01*
X71644Y551489D01*
X71797Y551544D01*
X71951Y551593D01*
X71980Y551609D01*
X72012Y551620D01*
X72150Y551704D01*
X72291Y551784D01*
X72316Y551806D01*
X72344Y551823D01*
X72463Y551934D01*
X72585Y552040D01*
X72605Y552067D01*
X72629Y552089D01*
X72722Y552222D01*
X72820Y552351D01*
X72834Y552381D01*
X72853Y552408D01*
X72917Y552557D01*
X72987Y552703D01*
X72995Y552735D01*
X73008Y552766D01*
X73041Y552925D01*
X73079Y553082D01*
X73080Y553115D01*
X73087Y553148D01*
X73086Y553310D01*
X73092Y553472D01*
X73086Y553504D01*
X73086Y553538D01*
X73052Y553696D01*
X73025Y553856D01*
X73013Y553886D01*
X73006Y553919D01*
X72941Y554068D01*
X72881Y554218D01*
X72863Y554246D01*
X72850Y554276D01*
X72799Y554343D01*
X72667Y554543D01*
X72583Y554627D01*
X72538Y554685D01*
X62533Y564690D01*
X62515Y564736D01*
X62459Y564838D01*
X62413Y564944D01*
X62375Y564994D01*
X62329Y565079D01*
X62139Y565305D01*
X62102Y565354D01*
X58977Y568478D01*
X58165Y570439D01*
X58165Y623361D01*
X58977Y625322D01*
X83008Y649352D01*
X83070Y649429D01*
X83141Y649500D01*
X83193Y649580D01*
X83253Y649654D01*
X83299Y649743D01*
X83354Y649826D01*
X83389Y649915D01*
X83433Y650001D01*
X83460Y650096D01*
X83496Y650189D01*
X83506Y650261D01*
X83538Y650376D01*
X83554Y650616D01*
X83565Y650698D01*
X83565Y728932D01*
X83555Y729031D01*
X83555Y729130D01*
X83535Y729224D01*
X83525Y729320D01*
X83495Y729414D01*
X83475Y729512D01*
X83436Y729600D01*
X83407Y729691D01*
X83358Y729778D01*
X83319Y729869D01*
X83274Y729927D01*
X83216Y730031D01*
X83058Y730212D01*
X83008Y730278D01*
X80263Y733023D01*
X80263Y740177D01*
X85323Y745237D01*
X92477Y745237D01*
X97537Y740177D01*
X97537Y733023D01*
X94792Y730278D01*
X94730Y730201D01*
X94659Y730131D01*
X94607Y730050D01*
X94547Y729976D01*
X94501Y729888D01*
X94446Y729804D01*
X94411Y729715D01*
X94367Y729630D01*
X94340Y729534D01*
X94304Y729441D01*
X94294Y729369D01*
X94262Y729254D01*
X94246Y729014D01*
X94235Y728932D01*
X94235Y646639D01*
X93423Y644678D01*
X69392Y620648D01*
X69330Y620571D01*
X69259Y620500D01*
X69207Y620420D01*
X69147Y620346D01*
X69101Y620257D01*
X69046Y620174D01*
X69011Y620085D01*
X68967Y619999D01*
X68940Y619904D01*
X68904Y619811D01*
X68894Y619739D01*
X68862Y619624D01*
X68846Y619384D01*
X68835Y619302D01*
X68835Y619278D01*
X68837Y619254D01*
X68836Y619235D01*
X68837Y619227D01*
X68836Y619211D01*
X68858Y619051D01*
X68875Y618890D01*
X68885Y618858D01*
X68889Y618825D01*
X68944Y618673D01*
X68993Y618518D01*
X69009Y618490D01*
X69020Y618458D01*
X69105Y618320D01*
X69184Y618179D01*
X69206Y618154D01*
X69223Y618125D01*
X69334Y618007D01*
X69440Y617885D01*
X69467Y617865D01*
X69489Y617841D01*
X69622Y617748D01*
X69751Y617650D01*
X69781Y617636D01*
X69808Y617616D01*
X69957Y617552D01*
X70103Y617483D01*
X70135Y617475D01*
X70166Y617462D01*
X70325Y617429D01*
X70482Y617391D01*
X70515Y617390D01*
X70548Y617383D01*
X70710Y617383D01*
X70872Y617378D01*
X70904Y617384D01*
X70938Y617384D01*
X71096Y617417D01*
X71256Y617445D01*
X71286Y617457D01*
X71319Y617464D01*
X71468Y617529D01*
X71618Y617588D01*
X71646Y617607D01*
X71676Y617620D01*
X71743Y617671D01*
X71943Y617803D01*
X72027Y617887D01*
X72086Y617931D01*
X73446Y619292D01*
X121362Y667207D01*
X121424Y667284D01*
X121495Y667355D01*
X121547Y667435D01*
X121607Y667510D01*
X121653Y667598D01*
X121708Y667681D01*
X121743Y667771D01*
X121787Y667856D01*
X121814Y667952D01*
X121850Y668044D01*
X121860Y668117D01*
X121892Y668231D01*
X121897Y668303D01*
X121902Y668324D01*
X121905Y668432D01*
X121908Y668471D01*
X121919Y668554D01*
X121919Y742816D01*
X122731Y744777D01*
X131523Y753569D01*
X133484Y754381D01*
X204747Y754381D01*
X206708Y753569D01*
X254163Y706113D01*
X254227Y706061D01*
X254285Y706001D01*
X254378Y705938D01*
X254465Y705867D01*
X254539Y705829D01*
X254608Y705783D01*
X254712Y705740D01*
X254811Y705688D01*
X254891Y705666D01*
X254968Y705634D01*
X255079Y705613D01*
X255187Y705583D01*
X255270Y705577D01*
X255351Y705562D01*
X255463Y705564D01*
X255576Y705557D01*
X255658Y705568D01*
X255741Y705570D01*
X255820Y705590D01*
X255962Y705610D01*
X256152Y705678D01*
X256238Y705700D01*
X258479Y706629D01*
X274921Y706629D01*
X277909Y705391D01*
X278907Y704392D01*
X278984Y704330D01*
X279055Y704259D01*
X279135Y704207D01*
X279210Y704147D01*
X279298Y704101D01*
X279381Y704046D01*
X279471Y704011D01*
X279556Y703967D01*
X279652Y703940D01*
X279744Y703904D01*
X279817Y703894D01*
X279931Y703862D01*
X280171Y703846D01*
X280254Y703835D01*
X307467Y703835D01*
X307533Y703842D01*
X307600Y703839D01*
X307727Y703861D01*
X307855Y703875D01*
X307918Y703895D01*
X307984Y703906D01*
X308103Y703954D01*
X308226Y703993D01*
X308284Y704025D01*
X308346Y704050D01*
X308453Y704121D01*
X308566Y704184D01*
X308616Y704228D01*
X308672Y704264D01*
X308763Y704355D01*
X308860Y704440D01*
X308900Y704493D01*
X308947Y704540D01*
X309017Y704648D01*
X309095Y704751D01*
X309123Y704811D01*
X309160Y704867D01*
X309207Y704987D01*
X309262Y705103D01*
X309278Y705168D01*
X309302Y705230D01*
X309314Y705316D01*
X309354Y705482D01*
X309359Y705652D01*
X309371Y705739D01*
X309371Y706721D01*
X310609Y709709D01*
X311608Y710707D01*
X311670Y710784D01*
X311741Y710855D01*
X311793Y710935D01*
X311853Y711010D01*
X311899Y711098D01*
X311954Y711181D01*
X311989Y711271D01*
X312033Y711356D01*
X312060Y711452D01*
X312096Y711544D01*
X312106Y711617D01*
X312138Y711731D01*
X312154Y711971D01*
X312165Y712054D01*
X312165Y737661D01*
X312977Y739622D01*
X327178Y753823D01*
X329139Y754635D01*
X343961Y754635D01*
X345922Y753823D01*
X360123Y739622D01*
X360935Y737661D01*
X360935Y735539D01*
X360318Y734049D01*
X360304Y734003D01*
X360284Y733962D01*
X360269Y733898D01*
X360242Y733830D01*
X360234Y733768D01*
X360206Y733676D01*
X360201Y733620D01*
X360192Y733583D01*
X360189Y733472D01*
X360181Y733382D01*
X360173Y733320D01*
X360173Y683745D01*
X359361Y681784D01*
X337010Y659433D01*
X336964Y659415D01*
X336862Y659359D01*
X336755Y659313D01*
X336706Y659275D01*
X336621Y659229D01*
X336395Y659039D01*
X336346Y659002D01*
X336092Y658748D01*
X336030Y658671D01*
X335959Y658600D01*
X335907Y658520D01*
X335846Y658446D01*
X335801Y658357D01*
X335746Y658274D01*
X335711Y658184D01*
X335667Y658099D01*
X335640Y658004D01*
X335604Y657911D01*
X335594Y657839D01*
X335562Y657724D01*
X335546Y657484D01*
X335535Y657402D01*
X335535Y643497D01*
X335547Y643381D01*
X335549Y643265D01*
X335565Y643204D01*
X335575Y643109D01*
X335664Y642828D01*
X335680Y642768D01*
X336170Y641585D01*
X336170Y571074D01*
X335358Y569113D01*
X335330Y569086D01*
X335268Y569009D01*
X335197Y568938D01*
X335145Y568858D01*
X335085Y568784D01*
X335039Y568695D01*
X334984Y568612D01*
X334949Y568523D01*
X334905Y568437D01*
X334878Y568342D01*
X334842Y568249D01*
X334832Y568177D01*
X334800Y568062D01*
X334784Y567822D01*
X334773Y567740D01*
X334773Y565494D01*
X333961Y563533D01*
X264761Y494333D01*
X262800Y493521D01*
X260554Y493521D01*
X260456Y493511D01*
X260356Y493511D01*
X260262Y493491D01*
X260167Y493481D01*
X260072Y493451D01*
X259974Y493431D01*
X259886Y493392D01*
X259795Y493363D01*
X259708Y493315D01*
X259617Y493275D01*
X259559Y493230D01*
X259456Y493172D01*
X259274Y493014D01*
X259208Y492964D01*
X257022Y490777D01*
X255061Y489965D01*
X252939Y489965D01*
G37*
%LPD*%
G36*
X225700Y526045D02*
X225700Y526045D01*
X225800Y526045D01*
X225894Y526065D01*
X225989Y526075D01*
X226084Y526105D01*
X226182Y526125D01*
X226269Y526164D01*
X226361Y526193D01*
X226448Y526242D01*
X226539Y526281D01*
X226597Y526326D01*
X226700Y526384D01*
X226882Y526542D01*
X226948Y526592D01*
X232614Y532258D01*
X232676Y532335D01*
X232747Y532406D01*
X232799Y532486D01*
X232859Y532560D01*
X232905Y532649D01*
X232960Y532732D01*
X232995Y532821D01*
X233039Y532907D01*
X233066Y533002D01*
X233102Y533095D01*
X233112Y533167D01*
X233144Y533282D01*
X233160Y533522D01*
X233171Y533604D01*
X233171Y536770D01*
X233178Y536778D01*
X233203Y536800D01*
X233301Y536929D01*
X233403Y537055D01*
X233418Y537084D01*
X233438Y537111D01*
X233508Y537258D01*
X233582Y537401D01*
X233591Y537433D01*
X233605Y537463D01*
X233643Y537620D01*
X233687Y537776D01*
X233689Y537810D01*
X233697Y537842D01*
X233702Y538004D01*
X233713Y538165D01*
X233709Y538198D01*
X233710Y538232D01*
X233682Y538391D01*
X233660Y538551D01*
X233649Y538583D01*
X233643Y538616D01*
X233584Y538766D01*
X233529Y538919D01*
X233512Y538947D01*
X233500Y538978D01*
X233411Y539113D01*
X233326Y539251D01*
X233304Y539276D01*
X233285Y539304D01*
X233170Y539418D01*
X233060Y539536D01*
X233033Y539555D01*
X233009Y539579D01*
X232873Y539667D01*
X232741Y539760D01*
X232711Y539773D01*
X232683Y539792D01*
X232532Y539851D01*
X232383Y539915D01*
X232351Y539922D01*
X232320Y539934D01*
X232237Y539945D01*
X232002Y539994D01*
X231883Y539993D01*
X231810Y540003D01*
X197406Y540003D01*
X197307Y539993D01*
X197208Y539993D01*
X197114Y539973D01*
X197018Y539963D01*
X196924Y539933D01*
X196826Y539913D01*
X196738Y539874D01*
X196647Y539845D01*
X196560Y539796D01*
X196469Y539757D01*
X196411Y539712D01*
X196307Y539654D01*
X196126Y539496D01*
X196060Y539446D01*
X194077Y537463D01*
X186923Y537463D01*
X181863Y542523D01*
X181863Y549677D01*
X186923Y554737D01*
X194077Y554737D01*
X197584Y551230D01*
X197661Y551168D01*
X197731Y551097D01*
X197812Y551045D01*
X197886Y550985D01*
X197974Y550939D01*
X198058Y550884D01*
X198147Y550849D01*
X198232Y550805D01*
X198328Y550778D01*
X198421Y550742D01*
X198493Y550732D01*
X198608Y550700D01*
X198848Y550684D01*
X198930Y550673D01*
X247306Y550673D01*
X249267Y549861D01*
X251035Y548092D01*
X255992Y543135D01*
X257761Y541367D01*
X257834Y541190D01*
X257858Y541146D01*
X257874Y541099D01*
X257950Y540975D01*
X258019Y540847D01*
X258051Y540809D01*
X258077Y540766D01*
X258177Y540660D01*
X258270Y540549D01*
X258309Y540518D01*
X258344Y540482D01*
X258463Y540398D01*
X258577Y540308D01*
X258622Y540286D01*
X258662Y540257D01*
X258796Y540200D01*
X258926Y540135D01*
X258974Y540122D01*
X259020Y540103D01*
X259162Y540073D01*
X259303Y540037D01*
X259353Y540034D01*
X259402Y540024D01*
X259547Y540024D01*
X259693Y540017D01*
X259742Y540025D01*
X259792Y540025D01*
X259934Y540055D01*
X260078Y540077D01*
X260124Y540095D01*
X260173Y540105D01*
X260306Y540163D01*
X260442Y540214D01*
X260485Y540241D01*
X260530Y540261D01*
X260601Y540315D01*
X260772Y540423D01*
X260875Y540523D01*
X260940Y540572D01*
X262912Y542545D01*
X264669Y542545D01*
X264669Y533527D01*
X264676Y533461D01*
X264673Y533395D01*
X264695Y533268D01*
X264709Y533139D01*
X264729Y533076D01*
X264740Y533011D01*
X264788Y532891D01*
X264827Y532768D01*
X264859Y532710D01*
X264884Y532648D01*
X264954Y532541D01*
X265018Y532428D01*
X265062Y532378D01*
X265098Y532323D01*
X265189Y532232D01*
X265274Y532135D01*
X265327Y532095D01*
X265374Y532048D01*
X265482Y531977D01*
X265585Y531899D01*
X265645Y531871D01*
X265701Y531835D01*
X265821Y531787D01*
X265937Y531732D01*
X266002Y531717D01*
X266064Y531692D01*
X266150Y531681D01*
X266316Y531640D01*
X266486Y531635D01*
X266573Y531623D01*
X266827Y531623D01*
X266893Y531630D01*
X266960Y531628D01*
X267087Y531650D01*
X267215Y531663D01*
X267278Y531683D01*
X267344Y531694D01*
X267463Y531742D01*
X267586Y531781D01*
X267644Y531814D01*
X267706Y531838D01*
X267813Y531909D01*
X267926Y531972D01*
X267976Y532016D01*
X268032Y532052D01*
X268123Y532144D01*
X268220Y532228D01*
X268260Y532281D01*
X268307Y532328D01*
X268377Y532436D01*
X268455Y532539D01*
X268483Y532599D01*
X268520Y532655D01*
X268567Y532775D01*
X268622Y532891D01*
X268638Y532956D01*
X268662Y533018D01*
X268674Y533105D01*
X268714Y533270D01*
X268719Y533440D01*
X268731Y533527D01*
X268731Y542545D01*
X270488Y542545D01*
X274398Y538635D01*
X274449Y538593D01*
X274495Y538545D01*
X274600Y538470D01*
X274700Y538389D01*
X274759Y538358D01*
X274813Y538320D01*
X274932Y538269D01*
X275046Y538210D01*
X275110Y538192D01*
X275171Y538166D01*
X275297Y538140D01*
X275421Y538105D01*
X275488Y538100D01*
X275553Y538087D01*
X275682Y538087D01*
X275810Y538078D01*
X275876Y538088D01*
X275943Y538088D01*
X276069Y538114D01*
X276197Y538132D01*
X276259Y538154D01*
X276324Y538168D01*
X276442Y538219D01*
X276564Y538263D01*
X276620Y538297D01*
X276681Y538324D01*
X276751Y538377D01*
X276896Y538466D01*
X277021Y538582D01*
X277091Y538635D01*
X308814Y570358D01*
X308876Y570435D01*
X308947Y570506D01*
X308999Y570586D01*
X309059Y570660D01*
X309105Y570749D01*
X309160Y570832D01*
X309195Y570921D01*
X309239Y571007D01*
X309266Y571102D01*
X309302Y571195D01*
X309312Y571267D01*
X309344Y571382D01*
X309360Y571622D01*
X309371Y571704D01*
X309371Y574867D01*
X314133Y579629D01*
X320867Y579629D01*
X322249Y578246D01*
X322275Y578225D01*
X322297Y578200D01*
X322426Y578103D01*
X322552Y578000D01*
X322581Y577985D01*
X322608Y577965D01*
X322754Y577896D01*
X322898Y577821D01*
X322930Y577812D01*
X322960Y577798D01*
X323117Y577760D01*
X323273Y577716D01*
X323307Y577714D01*
X323339Y577706D01*
X323501Y577701D01*
X323662Y577690D01*
X323695Y577694D01*
X323729Y577693D01*
X323888Y577721D01*
X324048Y577743D01*
X324080Y577754D01*
X324113Y577760D01*
X324263Y577819D01*
X324416Y577874D01*
X324444Y577891D01*
X324475Y577903D01*
X324610Y577992D01*
X324748Y578077D01*
X324773Y578100D01*
X324801Y578118D01*
X324915Y578233D01*
X325033Y578343D01*
X325052Y578370D01*
X325076Y578394D01*
X325164Y578530D01*
X325257Y578662D01*
X325271Y578693D01*
X325289Y578720D01*
X325348Y578871D01*
X325412Y579020D01*
X325419Y579052D01*
X325431Y579083D01*
X325442Y579166D01*
X325491Y579402D01*
X325490Y579520D01*
X325500Y579593D01*
X325500Y587370D01*
X325497Y587404D01*
X325499Y587437D01*
X325477Y587597D01*
X325460Y587758D01*
X325450Y587790D01*
X325446Y587823D01*
X325391Y587976D01*
X325342Y588130D01*
X325326Y588159D01*
X325315Y588190D01*
X325230Y588328D01*
X325151Y588469D01*
X325129Y588494D01*
X325112Y588523D01*
X325001Y588641D01*
X324895Y588763D01*
X324868Y588783D01*
X324846Y588807D01*
X324713Y588900D01*
X324584Y588998D01*
X324554Y589013D01*
X324527Y589032D01*
X324378Y589096D01*
X324232Y589165D01*
X324200Y589173D01*
X324169Y589186D01*
X324010Y589219D01*
X323853Y589257D01*
X323820Y589258D01*
X323787Y589265D01*
X323625Y589265D01*
X323463Y589270D01*
X323431Y589264D01*
X323397Y589264D01*
X323239Y589231D01*
X323079Y589203D01*
X323049Y589191D01*
X323016Y589184D01*
X322867Y589119D01*
X322717Y589060D01*
X322689Y589041D01*
X322659Y589028D01*
X322592Y588978D01*
X322392Y588845D01*
X322308Y588761D01*
X322249Y588717D01*
X321288Y587755D01*
X319531Y587755D01*
X319531Y596773D01*
X319524Y596839D01*
X319527Y596905D01*
X319520Y596944D01*
X319531Y597027D01*
X319531Y606045D01*
X321288Y606045D01*
X322249Y605083D01*
X322275Y605062D01*
X322297Y605037D01*
X322426Y604939D01*
X322552Y604837D01*
X322581Y604822D01*
X322608Y604802D01*
X322754Y604732D01*
X322898Y604658D01*
X322930Y604649D01*
X322960Y604635D01*
X323117Y604597D01*
X323273Y604553D01*
X323307Y604551D01*
X323339Y604543D01*
X323501Y604537D01*
X323662Y604526D01*
X323695Y604531D01*
X323729Y604530D01*
X323888Y604558D01*
X324048Y604580D01*
X324080Y604591D01*
X324113Y604597D01*
X324263Y604656D01*
X324416Y604711D01*
X324444Y604728D01*
X324475Y604740D01*
X324610Y604829D01*
X324748Y604914D01*
X324773Y604936D01*
X324801Y604955D01*
X324915Y605070D01*
X325033Y605180D01*
X325052Y605207D01*
X325076Y605231D01*
X325164Y605366D01*
X325257Y605499D01*
X325271Y605529D01*
X325289Y605557D01*
X325348Y605708D01*
X325412Y605857D01*
X325419Y605889D01*
X325431Y605920D01*
X325442Y606003D01*
X325491Y606238D01*
X325490Y606357D01*
X325500Y606430D01*
X325500Y623495D01*
X325497Y623528D01*
X325499Y623561D01*
X325477Y623722D01*
X325460Y623883D01*
X325450Y623914D01*
X325446Y623947D01*
X325391Y624100D01*
X325342Y624254D01*
X325326Y624283D01*
X325315Y624314D01*
X325230Y624453D01*
X325151Y624594D01*
X325129Y624619D01*
X325112Y624647D01*
X325001Y624765D01*
X324895Y624887D01*
X324868Y624907D01*
X324846Y624932D01*
X324713Y625025D01*
X324584Y625123D01*
X324554Y625137D01*
X324527Y625156D01*
X324378Y625220D01*
X324232Y625290D01*
X324199Y625298D01*
X324169Y625311D01*
X324011Y625343D01*
X323853Y625382D01*
X323820Y625383D01*
X323787Y625389D01*
X323625Y625389D01*
X323463Y625394D01*
X323431Y625389D01*
X323397Y625389D01*
X323239Y625355D01*
X323079Y625328D01*
X323049Y625315D01*
X323016Y625309D01*
X322867Y625243D01*
X322717Y625184D01*
X322689Y625166D01*
X322659Y625152D01*
X322592Y625102D01*
X322392Y624970D01*
X322308Y624885D01*
X322249Y624841D01*
X321866Y624458D01*
X319531Y624458D01*
X319531Y634873D01*
X319524Y634939D01*
X319527Y635005D01*
X319520Y635044D01*
X319531Y635127D01*
X319531Y645542D01*
X321929Y645542D01*
X321946Y645532D01*
X321973Y645512D01*
X322119Y645443D01*
X322263Y645369D01*
X322295Y645360D01*
X322325Y645345D01*
X322482Y645307D01*
X322638Y645264D01*
X322672Y645261D01*
X322704Y645253D01*
X322866Y645248D01*
X323027Y645237D01*
X323060Y645242D01*
X323094Y645241D01*
X323253Y645268D01*
X323413Y645290D01*
X323445Y645302D01*
X323478Y645307D01*
X323628Y645367D01*
X323781Y645421D01*
X323809Y645439D01*
X323840Y645451D01*
X323975Y645540D01*
X324113Y645624D01*
X324138Y645647D01*
X324166Y645665D01*
X324280Y645780D01*
X324398Y645891D01*
X324417Y645918D01*
X324441Y645941D01*
X324529Y646077D01*
X324622Y646209D01*
X324636Y646240D01*
X324654Y646268D01*
X324713Y646419D01*
X324777Y646567D01*
X324784Y646600D01*
X324796Y646631D01*
X324807Y646713D01*
X324856Y646949D01*
X324855Y647068D01*
X324865Y647140D01*
X324865Y661461D01*
X325677Y663422D01*
X326770Y664514D01*
X326791Y664540D01*
X326816Y664562D01*
X326914Y664691D01*
X327016Y664817D01*
X327031Y664846D01*
X327051Y664873D01*
X327121Y665019D01*
X327195Y665163D01*
X327204Y665195D01*
X327219Y665225D01*
X327257Y665382D01*
X327300Y665538D01*
X327303Y665572D01*
X327310Y665604D01*
X327316Y665766D01*
X327327Y665927D01*
X327322Y665960D01*
X327323Y665994D01*
X327295Y666153D01*
X327273Y666313D01*
X327262Y666345D01*
X327256Y666378D01*
X327197Y666528D01*
X327142Y666681D01*
X327125Y666709D01*
X327113Y666740D01*
X327024Y666875D01*
X326940Y667013D01*
X326917Y667038D01*
X326898Y667066D01*
X326784Y667180D01*
X326673Y667298D01*
X326646Y667317D01*
X326622Y667341D01*
X326487Y667429D01*
X326354Y667522D01*
X326324Y667536D01*
X326296Y667554D01*
X326145Y667613D01*
X325997Y667677D01*
X325964Y667684D01*
X325933Y667696D01*
X325851Y667707D01*
X325615Y667756D01*
X325496Y667755D01*
X325424Y667765D01*
X280254Y667765D01*
X280155Y667755D01*
X280055Y667755D01*
X279961Y667735D01*
X279866Y667725D01*
X279771Y667695D01*
X279674Y667675D01*
X279586Y667636D01*
X279495Y667607D01*
X279408Y667558D01*
X279317Y667519D01*
X279258Y667474D01*
X279155Y667416D01*
X278974Y667258D01*
X278907Y667208D01*
X277909Y666209D01*
X274921Y664971D01*
X261570Y664971D01*
X261537Y664968D01*
X261504Y664970D01*
X261344Y664948D01*
X261183Y664931D01*
X261151Y664921D01*
X261118Y664917D01*
X260965Y664862D01*
X260811Y664813D01*
X260782Y664797D01*
X260751Y664786D01*
X260613Y664702D01*
X260471Y664622D01*
X260446Y664600D01*
X260418Y664583D01*
X260300Y664472D01*
X260178Y664366D01*
X260158Y664339D01*
X260133Y664317D01*
X260040Y664184D01*
X259943Y664055D01*
X259928Y664025D01*
X259909Y663998D01*
X259845Y663849D01*
X259775Y663703D01*
X259768Y663671D01*
X259754Y663640D01*
X259722Y663481D01*
X259684Y663324D01*
X259683Y663291D01*
X259676Y663258D01*
X259676Y663096D01*
X259671Y662934D01*
X259676Y662902D01*
X259677Y662868D01*
X259710Y662710D01*
X259738Y662550D01*
X259750Y662520D01*
X259757Y662487D01*
X259822Y662338D01*
X259881Y662188D01*
X259899Y662160D01*
X259913Y662130D01*
X259963Y662063D01*
X260096Y661863D01*
X260180Y661779D01*
X260224Y661721D01*
X265558Y656386D01*
X265635Y656324D01*
X265706Y656253D01*
X265786Y656201D01*
X265860Y656141D01*
X265949Y656095D01*
X266032Y656040D01*
X266121Y656005D01*
X266206Y655961D01*
X266302Y655934D01*
X266395Y655898D01*
X266467Y655888D01*
X266582Y655856D01*
X266822Y655840D01*
X266904Y655829D01*
X274921Y655829D01*
X277909Y654591D01*
X278907Y653592D01*
X278984Y653530D01*
X279055Y653459D01*
X279135Y653407D01*
X279210Y653347D01*
X279298Y653301D01*
X279381Y653246D01*
X279471Y653211D01*
X279556Y653167D01*
X279652Y653140D01*
X279744Y653104D01*
X279817Y653094D01*
X279931Y653062D01*
X280171Y653046D01*
X280254Y653035D01*
X280461Y653035D01*
X282422Y652223D01*
X289561Y645083D01*
X289638Y645021D01*
X289709Y644950D01*
X289789Y644898D01*
X289863Y644838D01*
X289952Y644792D01*
X290035Y644737D01*
X290124Y644702D01*
X290210Y644658D01*
X290305Y644631D01*
X290398Y644595D01*
X290470Y644585D01*
X290585Y644553D01*
X290825Y644537D01*
X290907Y644526D01*
X296046Y644526D01*
X301626Y638946D01*
X301626Y631054D01*
X296046Y625474D01*
X288154Y625474D01*
X282574Y631054D01*
X282574Y636193D01*
X282564Y636291D01*
X282564Y636391D01*
X282544Y636485D01*
X282534Y636580D01*
X282504Y636675D01*
X282484Y636773D01*
X282445Y636860D01*
X282416Y636952D01*
X282367Y637039D01*
X282328Y637130D01*
X282283Y637188D01*
X282225Y637291D01*
X282158Y637368D01*
X282128Y637414D01*
X282060Y637481D01*
X282017Y637539D01*
X279401Y640155D01*
X279337Y640207D01*
X279279Y640267D01*
X279186Y640330D01*
X279099Y640401D01*
X279025Y640439D01*
X278956Y640485D01*
X278852Y640528D01*
X278752Y640580D01*
X278673Y640602D01*
X278596Y640634D01*
X278485Y640655D01*
X278377Y640685D01*
X278294Y640690D01*
X278213Y640706D01*
X278100Y640704D01*
X277988Y640711D01*
X277906Y640700D01*
X277823Y640698D01*
X277744Y640677D01*
X277602Y640658D01*
X277412Y640590D01*
X277326Y640567D01*
X274921Y639571D01*
X258479Y639571D01*
X255491Y640809D01*
X253205Y643095D01*
X251967Y646083D01*
X251967Y649317D01*
X253112Y652081D01*
X253136Y652160D01*
X253169Y652237D01*
X253192Y652347D01*
X253224Y652454D01*
X253231Y652537D01*
X253248Y652618D01*
X253247Y652731D01*
X253257Y652843D01*
X253247Y652925D01*
X253247Y653008D01*
X253224Y653118D01*
X253210Y653230D01*
X253184Y653308D01*
X253167Y653390D01*
X253122Y653493D01*
X253086Y653599D01*
X253044Y653671D01*
X253011Y653747D01*
X252961Y653812D01*
X252889Y653936D01*
X252753Y654085D01*
X252699Y654156D01*
X220521Y686334D01*
X220503Y686380D01*
X220447Y686482D01*
X220401Y686588D01*
X220363Y686638D01*
X220317Y686723D01*
X220156Y686914D01*
X220149Y686924D01*
X220137Y686936D01*
X220127Y686948D01*
X220090Y686997D01*
X209310Y697778D01*
X209248Y697827D01*
X209193Y697884D01*
X209097Y697950D01*
X209007Y698024D01*
X208937Y698060D01*
X208872Y698105D01*
X208764Y698149D01*
X208661Y698203D01*
X208585Y698224D01*
X208512Y698255D01*
X208398Y698277D01*
X208286Y698308D01*
X208207Y698313D01*
X208129Y698328D01*
X208013Y698326D01*
X207916Y698333D01*
X207916Y698344D01*
X207921Y698505D01*
X207915Y698538D01*
X207915Y698572D01*
X207882Y698730D01*
X207854Y698890D01*
X207842Y698920D01*
X207835Y698953D01*
X207770Y699102D01*
X207710Y699252D01*
X207692Y699280D01*
X207679Y699310D01*
X207628Y699377D01*
X207496Y699577D01*
X207412Y699661D01*
X207368Y699720D01*
X207114Y699974D01*
X207036Y700036D01*
X206966Y700107D01*
X206886Y700159D01*
X206811Y700220D01*
X206723Y700265D01*
X206639Y700320D01*
X206550Y700355D01*
X206465Y700399D01*
X206369Y700426D01*
X206277Y700462D01*
X206204Y700472D01*
X206090Y700504D01*
X205850Y700520D01*
X205767Y700531D01*
X190627Y700531D01*
X190561Y700524D01*
X190495Y700527D01*
X190368Y700505D01*
X190239Y700491D01*
X190176Y700471D01*
X190111Y700460D01*
X189991Y700412D01*
X189868Y700373D01*
X189810Y700341D01*
X189748Y700316D01*
X189641Y700245D01*
X189528Y700182D01*
X189478Y700138D01*
X189423Y700102D01*
X189332Y700011D01*
X189235Y699926D01*
X189195Y699873D01*
X189171Y699850D01*
X189168Y699848D01*
X189077Y699756D01*
X188980Y699672D01*
X188940Y699619D01*
X188893Y699572D01*
X188823Y699464D01*
X188745Y699361D01*
X188717Y699301D01*
X188680Y699245D01*
X188633Y699125D01*
X188578Y699009D01*
X188562Y698944D01*
X188538Y698882D01*
X188526Y698795D01*
X188486Y698630D01*
X188481Y698460D01*
X188469Y698373D01*
X188469Y689355D01*
X188299Y689355D01*
X188266Y689352D01*
X188233Y689354D01*
X188073Y689332D01*
X187912Y689315D01*
X187880Y689305D01*
X187847Y689301D01*
X187695Y689246D01*
X187540Y689197D01*
X187511Y689181D01*
X187480Y689170D01*
X187342Y689086D01*
X187201Y689006D01*
X187175Y688984D01*
X187147Y688967D01*
X187029Y688856D01*
X186907Y688750D01*
X186887Y688723D01*
X186863Y688701D01*
X186769Y688568D01*
X186672Y688439D01*
X186657Y688409D01*
X186638Y688382D01*
X186574Y688233D01*
X186505Y688087D01*
X186497Y688055D01*
X186483Y688024D01*
X186451Y687865D01*
X186413Y687708D01*
X186412Y687675D01*
X186405Y687642D01*
X186405Y687480D01*
X186400Y687318D01*
X186406Y687286D01*
X186406Y687252D01*
X186439Y687094D01*
X186467Y686934D01*
X186479Y686904D01*
X186486Y686871D01*
X186551Y686722D01*
X186610Y686572D01*
X186628Y686544D01*
X186642Y686514D01*
X186692Y686447D01*
X186825Y686247D01*
X186909Y686163D01*
X186953Y686105D01*
X191271Y681786D01*
X191348Y681724D01*
X191419Y681653D01*
X191499Y681601D01*
X191573Y681541D01*
X191662Y681495D01*
X191745Y681440D01*
X191835Y681405D01*
X191920Y681361D01*
X192015Y681334D01*
X192108Y681298D01*
X192180Y681288D01*
X192295Y681256D01*
X192535Y681240D01*
X192618Y681229D01*
X198721Y681229D01*
X201709Y679991D01*
X203995Y677705D01*
X205233Y674717D01*
X205233Y671483D01*
X203995Y668495D01*
X201709Y666209D01*
X198721Y664971D01*
X182279Y664971D01*
X179291Y666209D01*
X178293Y667208D01*
X178216Y667270D01*
X178145Y667341D01*
X178065Y667393D01*
X177990Y667453D01*
X177902Y667499D01*
X177819Y667554D01*
X177729Y667589D01*
X177644Y667633D01*
X177548Y667660D01*
X177456Y667696D01*
X177383Y667706D01*
X177269Y667738D01*
X177029Y667754D01*
X176946Y667765D01*
X168098Y667765D01*
X168000Y667755D01*
X167900Y667755D01*
X167806Y667735D01*
X167711Y667725D01*
X167616Y667695D01*
X167518Y667675D01*
X167431Y667636D01*
X167339Y667607D01*
X167252Y667558D01*
X167161Y667519D01*
X167103Y667474D01*
X167000Y667416D01*
X166818Y667258D01*
X166752Y667208D01*
X145592Y646048D01*
X145530Y645971D01*
X145459Y645900D01*
X145407Y645820D01*
X145347Y645746D01*
X145301Y645657D01*
X145246Y645574D01*
X145211Y645485D01*
X145167Y645399D01*
X145140Y645304D01*
X145104Y645211D01*
X145094Y645139D01*
X145062Y645024D01*
X145046Y644784D01*
X145035Y644702D01*
X145035Y614376D01*
X145038Y614343D01*
X145036Y614310D01*
X145058Y614149D01*
X145075Y613989D01*
X145085Y613957D01*
X145089Y613924D01*
X145144Y613771D01*
X145193Y613617D01*
X145209Y613588D01*
X145220Y613557D01*
X145305Y613418D01*
X145384Y613277D01*
X145406Y613252D01*
X145423Y613224D01*
X145534Y613106D01*
X145640Y612984D01*
X145667Y612964D01*
X145689Y612939D01*
X145822Y612846D01*
X145951Y612749D01*
X145981Y612734D01*
X146008Y612715D01*
X146157Y612651D01*
X146303Y612581D01*
X146335Y612574D01*
X146366Y612560D01*
X146525Y612528D01*
X146682Y612490D01*
X146715Y612489D01*
X146748Y612482D01*
X146910Y612482D01*
X147072Y612477D01*
X147104Y612482D01*
X147138Y612483D01*
X147296Y612516D01*
X147456Y612544D01*
X147486Y612556D01*
X147519Y612563D01*
X147668Y612628D01*
X147818Y612687D01*
X147846Y612705D01*
X147876Y612719D01*
X147943Y612769D01*
X148143Y612902D01*
X148227Y612986D01*
X148286Y613030D01*
X149392Y614136D01*
X149392Y614137D01*
X176499Y641244D01*
X176552Y641308D01*
X176611Y641366D01*
X176675Y641459D01*
X176745Y641546D01*
X176783Y641620D01*
X176830Y641689D01*
X176873Y641793D01*
X176925Y641892D01*
X176947Y641972D01*
X176979Y642049D01*
X176999Y642160D01*
X177030Y642268D01*
X177035Y642351D01*
X177051Y642432D01*
X177048Y642544D01*
X177056Y642657D01*
X177045Y642739D01*
X177043Y642822D01*
X177022Y642901D01*
X177003Y643043D01*
X176935Y643233D01*
X176912Y643319D01*
X175767Y646083D01*
X175767Y649317D01*
X177005Y652305D01*
X179291Y654591D01*
X182279Y655829D01*
X198721Y655829D01*
X201709Y654591D01*
X203995Y652305D01*
X205233Y649317D01*
X205233Y646083D01*
X203995Y643095D01*
X201709Y640809D01*
X198721Y639571D01*
X190704Y639571D01*
X190606Y639561D01*
X190506Y639561D01*
X190412Y639541D01*
X190317Y639531D01*
X190222Y639501D01*
X190124Y639481D01*
X190037Y639442D01*
X189945Y639413D01*
X189858Y639364D01*
X189767Y639325D01*
X189709Y639281D01*
X189606Y639222D01*
X189424Y639064D01*
X189358Y639014D01*
X184024Y633679D01*
X184003Y633654D01*
X183978Y633632D01*
X183880Y633503D01*
X183778Y633377D01*
X183763Y633348D01*
X183743Y633321D01*
X183673Y633175D01*
X183599Y633031D01*
X183590Y632999D01*
X183575Y632969D01*
X183537Y632812D01*
X183494Y632656D01*
X183491Y632622D01*
X183484Y632590D01*
X183478Y632428D01*
X183467Y632267D01*
X183472Y632234D01*
X183471Y632200D01*
X183499Y632041D01*
X183521Y631881D01*
X183532Y631849D01*
X183538Y631816D01*
X183597Y631666D01*
X183652Y631513D01*
X183669Y631485D01*
X183681Y631454D01*
X183770Y631319D01*
X183854Y631181D01*
X183877Y631156D01*
X183896Y631128D01*
X184010Y631014D01*
X184121Y630896D01*
X184148Y630877D01*
X184172Y630853D01*
X184307Y630765D01*
X184440Y630672D01*
X184470Y630659D01*
X184498Y630640D01*
X184649Y630581D01*
X184797Y630517D01*
X184830Y630510D01*
X184861Y630498D01*
X184944Y630487D01*
X185179Y630438D01*
X185298Y630439D01*
X185370Y630429D01*
X198721Y630429D01*
X201709Y629191D01*
X203995Y626905D01*
X205233Y623917D01*
X205233Y620683D01*
X203995Y617695D01*
X201709Y615409D01*
X198721Y614171D01*
X190704Y614171D01*
X190606Y614161D01*
X190506Y614161D01*
X190412Y614141D01*
X190317Y614131D01*
X190222Y614101D01*
X190124Y614081D01*
X190037Y614042D01*
X189945Y614013D01*
X189858Y613964D01*
X189767Y613925D01*
X189709Y613880D01*
X189606Y613822D01*
X189424Y613664D01*
X189358Y613614D01*
X167182Y591438D01*
X167120Y591361D01*
X167049Y591290D01*
X166997Y591210D01*
X166937Y591136D01*
X166891Y591047D01*
X166836Y590964D01*
X166801Y590875D01*
X166757Y590789D01*
X166730Y590694D01*
X166694Y590601D01*
X166684Y590529D01*
X166652Y590414D01*
X166636Y590174D01*
X166625Y590092D01*
X166625Y574196D01*
X165813Y572235D01*
X147855Y554277D01*
X145894Y553465D01*
X93445Y553465D01*
X93412Y553462D01*
X93378Y553464D01*
X93218Y553442D01*
X93057Y553425D01*
X93025Y553415D01*
X92992Y553411D01*
X92840Y553356D01*
X92686Y553307D01*
X92657Y553291D01*
X92625Y553280D01*
X92487Y553196D01*
X92346Y553116D01*
X92321Y553094D01*
X92292Y553077D01*
X92174Y552966D01*
X92052Y552860D01*
X92032Y552833D01*
X92008Y552811D01*
X91915Y552678D01*
X91817Y552549D01*
X91803Y552519D01*
X91784Y552492D01*
X91719Y552343D01*
X91650Y552197D01*
X91642Y552165D01*
X91629Y552134D01*
X91596Y551975D01*
X91558Y551818D01*
X91557Y551785D01*
X91550Y551752D01*
X91550Y551590D01*
X91545Y551428D01*
X91551Y551396D01*
X91551Y551362D01*
X91584Y551204D01*
X91612Y551044D01*
X91624Y551014D01*
X91631Y550981D01*
X91696Y550832D01*
X91756Y550682D01*
X91774Y550654D01*
X91787Y550624D01*
X91838Y550557D01*
X91970Y550357D01*
X92054Y550273D01*
X92098Y550215D01*
X115720Y526592D01*
X115797Y526530D01*
X115868Y526459D01*
X115948Y526407D01*
X116023Y526347D01*
X116111Y526301D01*
X116195Y526246D01*
X116284Y526211D01*
X116369Y526167D01*
X116465Y526140D01*
X116557Y526104D01*
X116630Y526094D01*
X116744Y526062D01*
X116984Y526046D01*
X117067Y526035D01*
X225602Y526035D01*
X225700Y526045D01*
G37*
G36*
X129258Y585479D02*
X129258Y585479D01*
X129292Y585477D01*
X129451Y585505D01*
X129611Y585527D01*
X129643Y585539D01*
X129676Y585544D01*
X129826Y585604D01*
X129979Y585658D01*
X130007Y585676D01*
X130038Y585688D01*
X130173Y585777D01*
X130311Y585861D01*
X130336Y585884D01*
X130364Y585902D01*
X130478Y586017D01*
X130596Y586128D01*
X130615Y586155D01*
X130639Y586178D01*
X130727Y586314D01*
X130820Y586446D01*
X130833Y586477D01*
X130852Y586505D01*
X130911Y586655D01*
X130975Y586804D01*
X130982Y586837D01*
X130994Y586868D01*
X131005Y586950D01*
X131054Y587186D01*
X131053Y587305D01*
X131063Y587377D01*
X131063Y587777D01*
X133808Y590522D01*
X133870Y590599D01*
X133941Y590669D01*
X133993Y590750D01*
X134053Y590824D01*
X134099Y590912D01*
X134154Y590996D01*
X134189Y591085D01*
X134233Y591170D01*
X134260Y591266D01*
X134296Y591359D01*
X134306Y591431D01*
X134338Y591546D01*
X134354Y591786D01*
X134365Y591868D01*
X134365Y648761D01*
X135177Y650722D01*
X162078Y677623D01*
X164039Y678435D01*
X174937Y678435D01*
X174970Y678438D01*
X175003Y678436D01*
X175163Y678458D01*
X175324Y678475D01*
X175356Y678485D01*
X175389Y678489D01*
X175542Y678544D01*
X175696Y678593D01*
X175725Y678609D01*
X175756Y678620D01*
X175894Y678704D01*
X176036Y678784D01*
X176061Y678806D01*
X176089Y678823D01*
X176207Y678934D01*
X176329Y679040D01*
X176349Y679067D01*
X176374Y679089D01*
X176467Y679222D01*
X176565Y679351D01*
X176579Y679381D01*
X176598Y679408D01*
X176662Y679557D01*
X176732Y679703D01*
X176739Y679735D01*
X176753Y679766D01*
X176785Y679925D01*
X176823Y680082D01*
X176825Y680115D01*
X176831Y680148D01*
X176831Y680310D01*
X176836Y680472D01*
X176831Y680504D01*
X176831Y680538D01*
X176797Y680696D01*
X176769Y680856D01*
X176757Y680886D01*
X176750Y680919D01*
X176685Y681068D01*
X176626Y681218D01*
X176608Y681246D01*
X176594Y681276D01*
X176544Y681343D01*
X176412Y681543D01*
X176327Y681627D01*
X176283Y681685D01*
X167435Y690533D01*
X166623Y692494D01*
X166623Y704506D01*
X167435Y706467D01*
X175929Y714961D01*
X177890Y715773D01*
X205255Y715773D01*
X207216Y714961D01*
X229567Y692610D01*
X229585Y692564D01*
X229622Y692496D01*
X229637Y692458D01*
X229652Y692435D01*
X229687Y692356D01*
X229725Y692306D01*
X229771Y692221D01*
X229961Y691995D01*
X229998Y691946D01*
X248717Y673228D01*
X248742Y673207D01*
X248764Y673182D01*
X248893Y673084D01*
X249019Y672982D01*
X249048Y672967D01*
X249075Y672947D01*
X249221Y672877D01*
X249365Y672803D01*
X249397Y672794D01*
X249427Y672779D01*
X249584Y672741D01*
X249740Y672698D01*
X249774Y672695D01*
X249806Y672688D01*
X249968Y672682D01*
X250129Y672671D01*
X250162Y672676D01*
X250196Y672675D01*
X250355Y672703D01*
X250515Y672725D01*
X250547Y672736D01*
X250580Y672742D01*
X250730Y672801D01*
X250883Y672856D01*
X250911Y672873D01*
X250942Y672885D01*
X251077Y672974D01*
X251215Y673058D01*
X251240Y673081D01*
X251268Y673100D01*
X251382Y673214D01*
X251500Y673325D01*
X251519Y673352D01*
X251543Y673376D01*
X251631Y673511D01*
X251724Y673644D01*
X251737Y673674D01*
X251756Y673702D01*
X251815Y673853D01*
X251879Y674001D01*
X251886Y674034D01*
X251898Y674065D01*
X251909Y674148D01*
X251958Y674383D01*
X251957Y674502D01*
X251967Y674574D01*
X251967Y674717D01*
X253112Y677481D01*
X253136Y677560D01*
X253169Y677637D01*
X253192Y677747D01*
X253224Y677854D01*
X253231Y677937D01*
X253248Y678018D01*
X253247Y678131D01*
X253257Y678243D01*
X253247Y678325D01*
X253247Y678408D01*
X253224Y678518D01*
X253210Y678630D01*
X253184Y678708D01*
X253167Y678790D01*
X253122Y678893D01*
X253086Y678999D01*
X253044Y679071D01*
X253011Y679147D01*
X252961Y679212D01*
X252889Y679336D01*
X252753Y679485D01*
X252699Y679556D01*
X201548Y730708D01*
X201471Y730770D01*
X201400Y730841D01*
X201320Y730893D01*
X201246Y730953D01*
X201157Y730999D01*
X201074Y731054D01*
X200985Y731089D01*
X200899Y731133D01*
X200804Y731160D01*
X200711Y731196D01*
X200639Y731206D01*
X200524Y731238D01*
X200284Y731254D01*
X200202Y731265D01*
X147368Y731265D01*
X147269Y731255D01*
X147170Y731255D01*
X147076Y731235D01*
X146980Y731225D01*
X146886Y731195D01*
X146788Y731175D01*
X146700Y731136D01*
X146609Y731107D01*
X146522Y731058D01*
X146431Y731019D01*
X146373Y730974D01*
X146269Y730916D01*
X146088Y730758D01*
X146022Y730708D01*
X143277Y727963D01*
X136123Y727963D01*
X135840Y728246D01*
X135814Y728267D01*
X135792Y728292D01*
X135663Y728390D01*
X135537Y728492D01*
X135508Y728508D01*
X135481Y728528D01*
X135335Y728597D01*
X135191Y728672D01*
X135159Y728681D01*
X135129Y728695D01*
X134972Y728733D01*
X134816Y728777D01*
X134782Y728779D01*
X134750Y728787D01*
X134588Y728792D01*
X134427Y728803D01*
X134394Y728798D01*
X134360Y728799D01*
X134201Y728772D01*
X134041Y728750D01*
X134009Y728738D01*
X133976Y728733D01*
X133826Y728673D01*
X133673Y728619D01*
X133645Y728601D01*
X133614Y728589D01*
X133479Y728500D01*
X133341Y728416D01*
X133316Y728393D01*
X133288Y728375D01*
X133174Y728260D01*
X133056Y728149D01*
X133037Y728122D01*
X133013Y728099D01*
X132925Y727963D01*
X132832Y727831D01*
X132818Y727800D01*
X132800Y727772D01*
X132741Y727622D01*
X132677Y727473D01*
X132670Y727440D01*
X132658Y727409D01*
X132647Y727327D01*
X132598Y727091D01*
X132599Y726972D01*
X132589Y726900D01*
X132589Y664494D01*
X131777Y662533D01*
X82092Y612849D01*
X82030Y612772D01*
X81959Y612702D01*
X81907Y612621D01*
X81847Y612547D01*
X81801Y612459D01*
X81746Y612375D01*
X81711Y612286D01*
X81667Y612201D01*
X81640Y612105D01*
X81604Y612012D01*
X81594Y611940D01*
X81562Y611825D01*
X81555Y611724D01*
X81552Y611711D01*
X81550Y611644D01*
X81546Y611585D01*
X81535Y611503D01*
X81535Y593646D01*
X81538Y593613D01*
X81536Y593580D01*
X81558Y593419D01*
X81575Y593258D01*
X81585Y593227D01*
X81589Y593194D01*
X81644Y593041D01*
X81693Y592887D01*
X81709Y592858D01*
X81720Y592827D01*
X81805Y592688D01*
X81884Y592547D01*
X81906Y592522D01*
X81923Y592494D01*
X82034Y592376D01*
X82140Y592254D01*
X82167Y592233D01*
X82189Y592209D01*
X82322Y592116D01*
X82451Y592018D01*
X82481Y592004D01*
X82508Y591985D01*
X82657Y591921D01*
X82803Y591851D01*
X82836Y591843D01*
X82866Y591830D01*
X83024Y591798D01*
X83182Y591759D01*
X83215Y591758D01*
X83248Y591752D01*
X83410Y591752D01*
X83572Y591747D01*
X83604Y591752D01*
X83638Y591752D01*
X83796Y591786D01*
X83956Y591813D01*
X83986Y591826D01*
X84019Y591832D01*
X84168Y591897D01*
X84318Y591957D01*
X84346Y591975D01*
X84376Y591989D01*
X84443Y592039D01*
X84643Y592171D01*
X84727Y592255D01*
X84786Y592300D01*
X85323Y592837D01*
X92477Y592837D01*
X95222Y590092D01*
X95299Y590030D01*
X95369Y589959D01*
X95450Y589907D01*
X95524Y589847D01*
X95612Y589801D01*
X95696Y589746D01*
X95785Y589711D01*
X95870Y589667D01*
X95966Y589640D01*
X96059Y589604D01*
X96131Y589594D01*
X96246Y589562D01*
X96486Y589546D01*
X96568Y589535D01*
X123160Y589535D01*
X125121Y588723D01*
X127813Y586031D01*
X127838Y586010D01*
X127860Y585985D01*
X127989Y585887D01*
X128115Y585785D01*
X128144Y585769D01*
X128171Y585749D01*
X128317Y585680D01*
X128461Y585605D01*
X128493Y585596D01*
X128523Y585582D01*
X128680Y585544D01*
X128836Y585500D01*
X128870Y585498D01*
X128902Y585490D01*
X129064Y585485D01*
X129225Y585474D01*
X129258Y585479D01*
G37*
G36*
X327300Y678445D02*
X327300Y678445D01*
X327400Y678445D01*
X327494Y678465D01*
X327589Y678475D01*
X327684Y678505D01*
X327782Y678525D01*
X327869Y678564D01*
X327961Y678593D01*
X328048Y678642D01*
X328139Y678681D01*
X328197Y678726D01*
X328300Y678784D01*
X328482Y678942D01*
X328548Y678992D01*
X337008Y687452D01*
X337070Y687529D01*
X337141Y687600D01*
X337193Y687680D01*
X337253Y687754D01*
X337299Y687843D01*
X337354Y687926D01*
X337389Y688015D01*
X337433Y688101D01*
X337460Y688196D01*
X337496Y688289D01*
X337506Y688361D01*
X337538Y688476D01*
X337554Y688716D01*
X337565Y688798D01*
X337565Y710346D01*
X337555Y710445D01*
X337555Y710545D01*
X337535Y710639D01*
X337525Y710734D01*
X337495Y710829D01*
X337475Y710926D01*
X337436Y711014D01*
X337407Y711105D01*
X337358Y711192D01*
X337319Y711283D01*
X337274Y711342D01*
X337216Y711445D01*
X337058Y711626D01*
X337008Y711693D01*
X336009Y712691D01*
X334771Y715679D01*
X334771Y732121D01*
X336009Y735109D01*
X338295Y737395D01*
X341283Y738633D01*
X341426Y738633D01*
X341459Y738636D01*
X341492Y738634D01*
X341652Y738656D01*
X341813Y738673D01*
X341845Y738683D01*
X341878Y738687D01*
X342031Y738742D01*
X342185Y738791D01*
X342214Y738807D01*
X342245Y738818D01*
X342384Y738903D01*
X342525Y738982D01*
X342550Y739004D01*
X342578Y739021D01*
X342696Y739132D01*
X342818Y739238D01*
X342838Y739265D01*
X342863Y739287D01*
X342956Y739420D01*
X343053Y739549D01*
X343068Y739579D01*
X343087Y739606D01*
X343151Y739755D01*
X343221Y739901D01*
X343228Y739933D01*
X343242Y739964D01*
X343274Y740123D01*
X343312Y740280D01*
X343313Y740313D01*
X343320Y740346D01*
X343320Y740508D01*
X343325Y740670D01*
X343320Y740702D01*
X343319Y740736D01*
X343286Y740894D01*
X343258Y741054D01*
X343246Y741084D01*
X343239Y741117D01*
X343174Y741266D01*
X343115Y741416D01*
X343097Y741444D01*
X343083Y741474D01*
X343033Y741541D01*
X342900Y741741D01*
X342816Y741825D01*
X342772Y741884D01*
X341248Y743408D01*
X341171Y743470D01*
X341100Y743541D01*
X341020Y743593D01*
X340946Y743654D01*
X340857Y743699D01*
X340774Y743754D01*
X340685Y743789D01*
X340599Y743833D01*
X340504Y743860D01*
X340411Y743896D01*
X340339Y743906D01*
X340224Y743938D01*
X339984Y743954D01*
X339902Y743965D01*
X333198Y743965D01*
X333100Y743955D01*
X333000Y743955D01*
X332906Y743935D01*
X332811Y743925D01*
X332716Y743895D01*
X332618Y743875D01*
X332531Y743836D01*
X332439Y743807D01*
X332352Y743758D01*
X332261Y743719D01*
X332203Y743674D01*
X332100Y743616D01*
X331918Y743458D01*
X331852Y743408D01*
X323392Y734948D01*
X323330Y734871D01*
X323259Y734800D01*
X323207Y734720D01*
X323147Y734646D01*
X323101Y734557D01*
X323046Y734474D01*
X323011Y734385D01*
X322967Y734299D01*
X322940Y734204D01*
X322904Y734111D01*
X322894Y734039D01*
X322862Y733924D01*
X322846Y733684D01*
X322835Y733602D01*
X322835Y712054D01*
X322845Y711955D01*
X322845Y711855D01*
X322865Y711761D01*
X322875Y711666D01*
X322905Y711571D01*
X322925Y711474D01*
X322964Y711386D01*
X322993Y711295D01*
X323042Y711208D01*
X323081Y711117D01*
X323126Y711058D01*
X323184Y710955D01*
X323342Y710774D01*
X323392Y710707D01*
X324391Y709709D01*
X325629Y706721D01*
X325629Y690279D01*
X324391Y687291D01*
X322105Y685005D01*
X319117Y683767D01*
X315883Y683767D01*
X312895Y685005D01*
X310609Y687291D01*
X309371Y690279D01*
X309371Y691261D01*
X309364Y691327D01*
X309367Y691394D01*
X309345Y691521D01*
X309331Y691649D01*
X309311Y691712D01*
X309300Y691778D01*
X309252Y691897D01*
X309213Y692020D01*
X309181Y692078D01*
X309156Y692140D01*
X309085Y692247D01*
X309022Y692360D01*
X308978Y692410D01*
X308942Y692466D01*
X308851Y692557D01*
X308766Y692654D01*
X308713Y692694D01*
X308666Y692741D01*
X308558Y692811D01*
X308455Y692889D01*
X308395Y692917D01*
X308339Y692954D01*
X308219Y693001D01*
X308103Y693056D01*
X308038Y693072D01*
X307976Y693096D01*
X307890Y693108D01*
X307724Y693148D01*
X307554Y693153D01*
X307467Y693165D01*
X280254Y693165D01*
X280155Y693155D01*
X280055Y693155D01*
X279961Y693135D01*
X279866Y693125D01*
X279771Y693095D01*
X279674Y693075D01*
X279586Y693036D01*
X279495Y693007D01*
X279408Y692958D01*
X279317Y692919D01*
X279258Y692874D01*
X279155Y692816D01*
X278974Y692658D01*
X278907Y692608D01*
X277909Y691609D01*
X274921Y690371D01*
X261570Y690371D01*
X261537Y690368D01*
X261504Y690370D01*
X261344Y690348D01*
X261183Y690331D01*
X261151Y690321D01*
X261118Y690317D01*
X260965Y690262D01*
X260811Y690213D01*
X260782Y690197D01*
X260751Y690186D01*
X260613Y690102D01*
X260471Y690022D01*
X260446Y690000D01*
X260418Y689983D01*
X260300Y689872D01*
X260178Y689766D01*
X260158Y689739D01*
X260133Y689717D01*
X260040Y689584D01*
X259943Y689455D01*
X259928Y689425D01*
X259909Y689398D01*
X259845Y689249D01*
X259775Y689103D01*
X259768Y689071D01*
X259754Y689040D01*
X259722Y688881D01*
X259684Y688724D01*
X259683Y688691D01*
X259676Y688658D01*
X259676Y688496D01*
X259671Y688334D01*
X259676Y688302D01*
X259677Y688268D01*
X259710Y688110D01*
X259738Y687950D01*
X259750Y687920D01*
X259757Y687887D01*
X259822Y687738D01*
X259881Y687588D01*
X259899Y687560D01*
X259913Y687530D01*
X259963Y687463D01*
X260096Y687263D01*
X260180Y687179D01*
X260224Y687121D01*
X265558Y681786D01*
X265635Y681724D01*
X265706Y681653D01*
X265786Y681601D01*
X265860Y681541D01*
X265949Y681495D01*
X266032Y681440D01*
X266121Y681405D01*
X266206Y681361D01*
X266302Y681334D01*
X266395Y681298D01*
X266467Y681288D01*
X266582Y681256D01*
X266822Y681240D01*
X266904Y681229D01*
X274921Y681229D01*
X277909Y679991D01*
X278907Y678992D01*
X278984Y678930D01*
X279055Y678859D01*
X279135Y678807D01*
X279210Y678747D01*
X279298Y678701D01*
X279381Y678646D01*
X279471Y678611D01*
X279556Y678567D01*
X279652Y678540D01*
X279744Y678504D01*
X279817Y678494D01*
X279931Y678462D01*
X280171Y678446D01*
X280254Y678435D01*
X327202Y678435D01*
X327300Y678445D01*
G37*
G36*
X130055Y564138D02*
X130055Y564138D01*
X130089Y564136D01*
X130249Y564158D01*
X130410Y564175D01*
X130442Y564185D01*
X130475Y564189D01*
X130627Y564244D01*
X130782Y564293D01*
X130811Y564309D01*
X130842Y564320D01*
X130980Y564404D01*
X131121Y564484D01*
X131146Y564506D01*
X131175Y564523D01*
X131293Y564634D01*
X131415Y564740D01*
X131435Y564767D01*
X131459Y564789D01*
X131553Y564922D01*
X131650Y565051D01*
X131664Y565081D01*
X131684Y565108D01*
X131748Y565257D01*
X131817Y565403D01*
X131825Y565435D01*
X131838Y565466D01*
X131871Y565625D01*
X131909Y565782D01*
X131910Y565815D01*
X131917Y565848D01*
X131917Y566010D01*
X131922Y566172D01*
X131916Y566204D01*
X131916Y566238D01*
X131883Y566396D01*
X131855Y566556D01*
X131843Y566586D01*
X131836Y566619D01*
X131771Y566768D01*
X131712Y566918D01*
X131693Y566946D01*
X131680Y566976D01*
X131629Y567043D01*
X131497Y567243D01*
X131413Y567327D01*
X131369Y567385D01*
X120447Y578308D01*
X120370Y578370D01*
X120299Y578441D01*
X120219Y578493D01*
X120144Y578553D01*
X120056Y578599D01*
X119973Y578654D01*
X119883Y578689D01*
X119798Y578733D01*
X119702Y578760D01*
X119610Y578796D01*
X119537Y578806D01*
X119423Y578838D01*
X119183Y578854D01*
X119100Y578865D01*
X96568Y578865D01*
X96469Y578855D01*
X96370Y578855D01*
X96276Y578835D01*
X96180Y578825D01*
X96086Y578795D01*
X95988Y578775D01*
X95900Y578736D01*
X95809Y578707D01*
X95722Y578659D01*
X95631Y578619D01*
X95573Y578574D01*
X95469Y578516D01*
X95288Y578358D01*
X95222Y578308D01*
X92477Y575563D01*
X85323Y575563D01*
X84786Y576100D01*
X84760Y576121D01*
X84738Y576146D01*
X84609Y576244D01*
X84483Y576346D01*
X84454Y576362D01*
X84427Y576382D01*
X84281Y576451D01*
X84137Y576526D01*
X84105Y576535D01*
X84075Y576549D01*
X83918Y576587D01*
X83762Y576631D01*
X83728Y576633D01*
X83696Y576641D01*
X83534Y576646D01*
X83373Y576657D01*
X83340Y576652D01*
X83306Y576653D01*
X83147Y576626D01*
X82987Y576604D01*
X82955Y576592D01*
X82922Y576587D01*
X82772Y576527D01*
X82619Y576473D01*
X82591Y576455D01*
X82560Y576443D01*
X82425Y576354D01*
X82287Y576270D01*
X82262Y576247D01*
X82234Y576229D01*
X82120Y576114D01*
X82002Y576003D01*
X81983Y575976D01*
X81959Y575953D01*
X81871Y575817D01*
X81778Y575685D01*
X81764Y575654D01*
X81746Y575626D01*
X81687Y575476D01*
X81623Y575327D01*
X81616Y575294D01*
X81604Y575263D01*
X81593Y575181D01*
X81544Y574945D01*
X81545Y574826D01*
X81535Y574754D01*
X81535Y574498D01*
X81545Y574400D01*
X81545Y574300D01*
X81565Y574206D01*
X81575Y574111D01*
X81605Y574016D01*
X81625Y573918D01*
X81664Y573831D01*
X81693Y573739D01*
X81742Y573652D01*
X81781Y573561D01*
X81826Y573503D01*
X81884Y573400D01*
X82042Y573218D01*
X82092Y573152D01*
X90552Y564692D01*
X90629Y564630D01*
X90700Y564559D01*
X90780Y564507D01*
X90854Y564447D01*
X90943Y564401D01*
X91026Y564346D01*
X91115Y564311D01*
X91201Y564267D01*
X91296Y564240D01*
X91389Y564204D01*
X91461Y564194D01*
X91576Y564162D01*
X91816Y564146D01*
X91898Y564135D01*
X130022Y564135D01*
X130055Y564138D01*
G37*
%LPC*%
G36*
X290483Y709167D02*
X290483Y709167D01*
X287495Y710405D01*
X285209Y712691D01*
X283971Y715679D01*
X283971Y732121D01*
X285209Y735109D01*
X287495Y737395D01*
X290483Y738633D01*
X293717Y738633D01*
X296705Y737395D01*
X298991Y735109D01*
X300229Y732121D01*
X300229Y715679D01*
X298991Y712691D01*
X296705Y710405D01*
X293717Y709167D01*
X290483Y709167D01*
G37*
%LPD*%
%LPC*%
G36*
X258479Y614171D02*
X258479Y614171D01*
X255491Y615409D01*
X253205Y617695D01*
X251967Y620683D01*
X251967Y623917D01*
X253205Y626905D01*
X255491Y629191D01*
X258479Y630429D01*
X274921Y630429D01*
X277909Y629191D01*
X280195Y626905D01*
X281433Y623917D01*
X281433Y620683D01*
X280195Y617695D01*
X277909Y615409D01*
X274921Y614171D01*
X258479Y614171D01*
G37*
%LPD*%
%LPC*%
G36*
X320028Y493775D02*
X320028Y493775D01*
X318174Y494846D01*
X317104Y496699D01*
X317104Y499884D01*
X317986Y501412D01*
X317991Y501423D01*
X317998Y501433D01*
X318071Y501601D01*
X318146Y501767D01*
X318148Y501779D01*
X318153Y501791D01*
X318190Y501969D01*
X318229Y502148D01*
X318229Y502160D01*
X318232Y502173D01*
X318231Y502355D01*
X318233Y502538D01*
X318231Y502550D01*
X318231Y502562D01*
X318193Y502742D01*
X318158Y502920D01*
X318153Y502932D01*
X318151Y502944D01*
X318078Y503112D01*
X318007Y503279D01*
X318000Y503290D01*
X317995Y503301D01*
X317964Y503342D01*
X317785Y503600D01*
X317720Y503663D01*
X317684Y503710D01*
X317104Y504290D01*
X317104Y505868D01*
X318221Y506985D01*
X325060Y506985D01*
X325148Y506913D01*
X325207Y506883D01*
X325262Y506844D01*
X325380Y506793D01*
X325495Y506734D01*
X325559Y506716D01*
X325620Y506690D01*
X325746Y506664D01*
X325870Y506629D01*
X325936Y506624D01*
X326001Y506611D01*
X326130Y506611D01*
X326259Y506603D01*
X326325Y506612D01*
X326391Y506612D01*
X326517Y506638D01*
X326645Y506656D01*
X326708Y506678D01*
X326773Y506692D01*
X326891Y506744D01*
X327012Y506787D01*
X327069Y506821D01*
X327130Y506848D01*
X327200Y506901D01*
X327337Y506985D01*
X334204Y506985D01*
X334292Y506913D01*
X334351Y506883D01*
X334406Y506844D01*
X334524Y506793D01*
X334639Y506734D01*
X334702Y506716D01*
X334764Y506690D01*
X334890Y506664D01*
X335014Y506629D01*
X335080Y506624D01*
X335145Y506611D01*
X335274Y506611D01*
X335403Y506603D01*
X335469Y506612D01*
X335535Y506612D01*
X335661Y506638D01*
X335789Y506656D01*
X335852Y506678D01*
X335917Y506692D01*
X336035Y506744D01*
X336156Y506787D01*
X336213Y506821D01*
X336274Y506848D01*
X336344Y506901D01*
X336481Y506985D01*
X343308Y506985D01*
X344425Y505868D01*
X344425Y500113D01*
X343950Y499638D01*
X343908Y499586D01*
X343860Y499541D01*
X343786Y499436D01*
X343704Y499336D01*
X343674Y499277D01*
X343635Y499222D01*
X343584Y499104D01*
X343525Y498990D01*
X343507Y498925D01*
X343481Y498864D01*
X343455Y498738D01*
X343420Y498614D01*
X343415Y498548D01*
X343402Y498483D01*
X343402Y498354D01*
X343393Y498225D01*
X343403Y498160D01*
X343403Y498093D01*
X343429Y497967D01*
X343447Y497839D01*
X343469Y497777D01*
X343483Y497711D01*
X343535Y497593D01*
X343578Y497472D01*
X343612Y497415D01*
X343639Y497354D01*
X343692Y497285D01*
X343781Y497139D01*
X343897Y497015D01*
X343950Y496945D01*
X344425Y496470D01*
X344425Y494892D01*
X343308Y493775D01*
X338316Y493775D01*
X336949Y494564D01*
X336938Y494569D01*
X336928Y494576D01*
X336761Y494649D01*
X336594Y494724D01*
X336582Y494726D01*
X336570Y494731D01*
X336392Y494768D01*
X336213Y494807D01*
X336201Y494807D01*
X336189Y494810D01*
X336006Y494809D01*
X335823Y494811D01*
X335811Y494809D01*
X335799Y494809D01*
X335620Y494772D01*
X335441Y494736D01*
X335429Y494731D01*
X335417Y494729D01*
X335250Y494656D01*
X335082Y494585D01*
X335071Y494578D01*
X335060Y494573D01*
X335019Y494542D01*
X334761Y494363D01*
X334698Y494298D01*
X334651Y494262D01*
X334164Y493775D01*
X329172Y493775D01*
X327805Y494564D01*
X327794Y494569D01*
X327784Y494576D01*
X327616Y494649D01*
X327450Y494724D01*
X327438Y494726D01*
X327426Y494731D01*
X327248Y494768D01*
X327069Y494807D01*
X327057Y494807D01*
X327045Y494810D01*
X326862Y494809D01*
X326679Y494811D01*
X326667Y494809D01*
X326655Y494809D01*
X326476Y494771D01*
X326297Y494736D01*
X326285Y494731D01*
X326273Y494729D01*
X326105Y494656D01*
X325938Y494585D01*
X325927Y494578D01*
X325916Y494573D01*
X325875Y494542D01*
X325617Y494363D01*
X325554Y494298D01*
X325507Y494262D01*
X325020Y493775D01*
X320028Y493775D01*
G37*
%LPD*%
G36*
X159550Y599528D02*
X159550Y599528D01*
X159584Y599529D01*
X159742Y599562D01*
X159902Y599590D01*
X159932Y599602D01*
X159965Y599609D01*
X160114Y599674D01*
X160264Y599733D01*
X160292Y599751D01*
X160322Y599765D01*
X160389Y599815D01*
X160589Y599948D01*
X160673Y600032D01*
X160731Y600076D01*
X176499Y615844D01*
X176512Y615859D01*
X176522Y615868D01*
X176554Y615910D01*
X176611Y615966D01*
X176675Y616059D01*
X176745Y616146D01*
X176783Y616220D01*
X176830Y616289D01*
X176873Y616393D01*
X176925Y616492D01*
X176947Y616572D01*
X176979Y616649D01*
X176999Y616760D01*
X177030Y616868D01*
X177035Y616951D01*
X177051Y617032D01*
X177048Y617144D01*
X177056Y617257D01*
X177045Y617339D01*
X177043Y617422D01*
X177022Y617501D01*
X177003Y617643D01*
X176935Y617833D01*
X176912Y617919D01*
X175767Y620683D01*
X175767Y620826D01*
X175764Y620859D01*
X175766Y620892D01*
X175744Y621052D01*
X175727Y621213D01*
X175717Y621245D01*
X175713Y621278D01*
X175658Y621431D01*
X175609Y621585D01*
X175593Y621614D01*
X175582Y621645D01*
X175498Y621783D01*
X175418Y621925D01*
X175396Y621950D01*
X175379Y621978D01*
X175268Y622096D01*
X175162Y622218D01*
X175135Y622238D01*
X175113Y622263D01*
X174980Y622356D01*
X174851Y622453D01*
X174821Y622468D01*
X174794Y622487D01*
X174645Y622551D01*
X174499Y622621D01*
X174467Y622628D01*
X174436Y622642D01*
X174277Y622674D01*
X174120Y622712D01*
X174087Y622713D01*
X174054Y622720D01*
X173892Y622720D01*
X173730Y622725D01*
X173698Y622720D01*
X173664Y622719D01*
X173506Y622686D01*
X173346Y622658D01*
X173316Y622646D01*
X173283Y622639D01*
X173134Y622574D01*
X172984Y622515D01*
X172956Y622497D01*
X172926Y622483D01*
X172859Y622433D01*
X172659Y622300D01*
X172575Y622216D01*
X172517Y622172D01*
X158038Y607694D01*
X157976Y607617D01*
X157905Y607546D01*
X157853Y607466D01*
X157793Y607392D01*
X157747Y607303D01*
X157692Y607220D01*
X157657Y607131D01*
X157613Y607045D01*
X157586Y606950D01*
X157550Y606857D01*
X157540Y606785D01*
X157508Y606670D01*
X157492Y606430D01*
X157481Y606348D01*
X157481Y601422D01*
X157484Y601389D01*
X157482Y601356D01*
X157504Y601196D01*
X157521Y601035D01*
X157531Y601003D01*
X157535Y600970D01*
X157590Y600817D01*
X157639Y600663D01*
X157655Y600634D01*
X157666Y600603D01*
X157750Y600465D01*
X157830Y600323D01*
X157852Y600298D01*
X157869Y600270D01*
X157980Y600152D01*
X158086Y600030D01*
X158113Y600010D01*
X158135Y599985D01*
X158268Y599892D01*
X158397Y599795D01*
X158427Y599780D01*
X158454Y599761D01*
X158603Y599697D01*
X158749Y599627D01*
X158781Y599620D01*
X158812Y599606D01*
X158971Y599574D01*
X159128Y599536D01*
X159161Y599535D01*
X159194Y599528D01*
X159356Y599528D01*
X159518Y599523D01*
X159550Y599528D01*
G37*
%LPC*%
G36*
X192531Y689355D02*
X192531Y689355D01*
X192531Y696469D01*
X206021Y696469D01*
X206041Y696471D01*
X206024Y696359D01*
X205579Y694990D01*
X204925Y693707D01*
X204079Y692543D01*
X203061Y691525D01*
X201897Y690679D01*
X200614Y690025D01*
X199246Y689580D01*
X197824Y689355D01*
X192531Y689355D01*
G37*
%LPD*%
G36*
X251100Y513345D02*
X251100Y513345D01*
X251200Y513345D01*
X251294Y513365D01*
X251389Y513375D01*
X251484Y513405D01*
X251582Y513425D01*
X251669Y513464D01*
X251761Y513493D01*
X251848Y513542D01*
X251939Y513581D01*
X251997Y513626D01*
X252100Y513684D01*
X252282Y513842D01*
X252348Y513892D01*
X261465Y523009D01*
X261507Y523061D01*
X261555Y523106D01*
X261630Y523212D01*
X261711Y523312D01*
X261742Y523371D01*
X261780Y523425D01*
X261831Y523543D01*
X261890Y523658D01*
X261908Y523722D01*
X261934Y523783D01*
X261960Y523909D01*
X261995Y524033D01*
X262000Y524100D01*
X262013Y524165D01*
X262013Y524294D01*
X262022Y524422D01*
X262012Y524488D01*
X262012Y524555D01*
X261986Y524681D01*
X261968Y524808D01*
X261946Y524871D01*
X261932Y524936D01*
X261881Y525054D01*
X261837Y525176D01*
X261803Y525232D01*
X261776Y525293D01*
X261723Y525363D01*
X261634Y525508D01*
X261518Y525633D01*
X261465Y525702D01*
X260940Y526228D01*
X260901Y526259D01*
X260867Y526296D01*
X260750Y526382D01*
X260637Y526474D01*
X260593Y526497D01*
X260553Y526526D01*
X260420Y526586D01*
X260291Y526653D01*
X260243Y526666D01*
X260198Y526687D01*
X260056Y526719D01*
X259916Y526758D01*
X259866Y526761D01*
X259817Y526772D01*
X259672Y526775D01*
X259527Y526784D01*
X259477Y526778D01*
X259427Y526778D01*
X259285Y526751D01*
X259141Y526731D01*
X259094Y526714D01*
X259045Y526705D01*
X258910Y526649D01*
X258774Y526600D01*
X258731Y526574D01*
X258685Y526555D01*
X258565Y526473D01*
X258441Y526397D01*
X258404Y526363D01*
X258363Y526335D01*
X258262Y526230D01*
X258156Y526131D01*
X258127Y526090D01*
X258093Y526054D01*
X258048Y525977D01*
X257932Y525812D01*
X257875Y525681D01*
X257834Y525610D01*
X257761Y525433D01*
X248913Y516585D01*
X248892Y516560D01*
X248867Y516538D01*
X248769Y516409D01*
X248667Y516283D01*
X248652Y516254D01*
X248631Y516227D01*
X248562Y516081D01*
X248488Y515937D01*
X248479Y515905D01*
X248464Y515875D01*
X248426Y515718D01*
X248383Y515562D01*
X248380Y515528D01*
X248373Y515496D01*
X248367Y515334D01*
X248356Y515173D01*
X248361Y515140D01*
X248360Y515106D01*
X248387Y514947D01*
X248410Y514787D01*
X248421Y514755D01*
X248427Y514722D01*
X248486Y514572D01*
X248541Y514419D01*
X248558Y514391D01*
X248570Y514360D01*
X248659Y514225D01*
X248743Y514087D01*
X248766Y514062D01*
X248784Y514034D01*
X248899Y513920D01*
X249010Y513802D01*
X249037Y513783D01*
X249061Y513759D01*
X249196Y513671D01*
X249329Y513578D01*
X249359Y513565D01*
X249387Y513546D01*
X249538Y513487D01*
X249686Y513423D01*
X249719Y513416D01*
X249750Y513404D01*
X249833Y513393D01*
X250068Y513344D01*
X250187Y513345D01*
X250259Y513335D01*
X251002Y513335D01*
X251100Y513345D01*
G37*
%LPC*%
G36*
X306958Y637031D02*
X306958Y637031D01*
X306958Y639367D01*
X313133Y645542D01*
X315469Y645542D01*
X315469Y637031D01*
X306958Y637031D01*
G37*
%LPD*%
%LPC*%
G36*
X313133Y624458D02*
X313133Y624458D01*
X306958Y630633D01*
X306958Y632969D01*
X315469Y632969D01*
X315469Y624458D01*
X313133Y624458D01*
G37*
%LPD*%
G36*
X231366Y509489D02*
X231366Y509489D01*
X231400Y509488D01*
X231559Y509516D01*
X231719Y509538D01*
X231751Y509549D01*
X231784Y509555D01*
X231934Y509614D01*
X232087Y509669D01*
X232115Y509686D01*
X232146Y509698D01*
X232281Y509787D01*
X232419Y509872D01*
X232444Y509894D01*
X232472Y509913D01*
X232586Y510027D01*
X232704Y510138D01*
X232723Y510165D01*
X232747Y510189D01*
X232835Y510324D01*
X232928Y510457D01*
X232941Y510487D01*
X232960Y510515D01*
X233019Y510666D01*
X233083Y510815D01*
X233090Y510847D01*
X233102Y510878D01*
X233113Y510961D01*
X233162Y511196D01*
X233161Y511315D01*
X233168Y511364D01*
X235408Y513603D01*
X235470Y513680D01*
X235541Y513751D01*
X235593Y513831D01*
X235653Y513906D01*
X235699Y513994D01*
X235754Y514077D01*
X235789Y514167D01*
X235833Y514252D01*
X235860Y514348D01*
X235896Y514440D01*
X235906Y514513D01*
X235938Y514627D01*
X235954Y514867D01*
X235965Y514950D01*
X235965Y515924D01*
X235962Y515957D01*
X235964Y515990D01*
X235942Y516150D01*
X235925Y516311D01*
X235915Y516343D01*
X235911Y516376D01*
X235856Y516529D01*
X235807Y516683D01*
X235791Y516712D01*
X235780Y516743D01*
X235695Y516882D01*
X235616Y517023D01*
X235594Y517048D01*
X235577Y517076D01*
X235466Y517194D01*
X235360Y517316D01*
X235333Y517336D01*
X235311Y517361D01*
X235178Y517454D01*
X235049Y517551D01*
X235019Y517566D01*
X234992Y517585D01*
X234843Y517649D01*
X234697Y517719D01*
X234665Y517726D01*
X234634Y517740D01*
X234475Y517772D01*
X234318Y517810D01*
X234285Y517811D01*
X234252Y517818D01*
X234090Y517818D01*
X233928Y517823D01*
X233896Y517818D01*
X233862Y517817D01*
X233704Y517784D01*
X233544Y517756D01*
X233514Y517744D01*
X233481Y517737D01*
X233332Y517672D01*
X233182Y517613D01*
X233154Y517595D01*
X233124Y517581D01*
X233057Y517531D01*
X232857Y517398D01*
X232773Y517314D01*
X232714Y517270D01*
X231622Y516177D01*
X229661Y515365D01*
X229193Y515365D01*
X229160Y515362D01*
X229127Y515364D01*
X228967Y515342D01*
X228806Y515325D01*
X228774Y515315D01*
X228741Y515311D01*
X228588Y515256D01*
X228434Y515207D01*
X228405Y515191D01*
X228374Y515180D01*
X228235Y515095D01*
X228095Y515016D01*
X228069Y514994D01*
X228041Y514977D01*
X227923Y514866D01*
X227801Y514760D01*
X227781Y514733D01*
X227757Y514711D01*
X227664Y514578D01*
X227566Y514449D01*
X227551Y514419D01*
X227532Y514392D01*
X227468Y514243D01*
X227399Y514097D01*
X227391Y514065D01*
X227377Y514034D01*
X227345Y513875D01*
X227307Y513718D01*
X227306Y513685D01*
X227299Y513652D01*
X227299Y513490D01*
X227294Y513328D01*
X227300Y513296D01*
X227300Y513262D01*
X227333Y513104D01*
X227361Y512944D01*
X227373Y512914D01*
X227380Y512881D01*
X227445Y512732D01*
X227504Y512582D01*
X227522Y512554D01*
X227536Y512524D01*
X227586Y512457D01*
X227719Y512257D01*
X227803Y512173D01*
X227847Y512114D01*
X229207Y510754D01*
X229921Y510041D01*
X229946Y510020D01*
X229968Y509995D01*
X230097Y509897D01*
X230223Y509795D01*
X230252Y509780D01*
X230279Y509760D01*
X230425Y509690D01*
X230569Y509616D01*
X230601Y509607D01*
X230631Y509593D01*
X230788Y509554D01*
X230944Y509511D01*
X230978Y509509D01*
X231010Y509501D01*
X231172Y509495D01*
X231333Y509484D01*
X231366Y509489D01*
G37*
%LPC*%
G36*
X308355Y598931D02*
X308355Y598931D01*
X308355Y600688D01*
X313712Y606045D01*
X315469Y606045D01*
X315469Y598931D01*
X308355Y598931D01*
G37*
%LPD*%
%LPC*%
G36*
X313712Y587755D02*
X313712Y587755D01*
X308355Y593112D01*
X308355Y594869D01*
X315469Y594869D01*
X315469Y587755D01*
X313712Y587755D01*
G37*
%LPD*%
D10*
X342519Y495681D02*
X339386Y495681D01*
X339297Y495683D01*
X339209Y495689D01*
X339121Y495698D01*
X339033Y495711D01*
X338946Y495728D01*
X338860Y495748D01*
X338775Y495773D01*
X338690Y495800D01*
X338607Y495832D01*
X338526Y495866D01*
X338446Y495905D01*
X338368Y495946D01*
X338291Y495991D01*
X338217Y496039D01*
X338144Y496090D01*
X338074Y496144D01*
X338007Y496202D01*
X337941Y496262D01*
X337879Y496324D01*
X337819Y496390D01*
X337761Y496457D01*
X337707Y496527D01*
X337656Y496600D01*
X337608Y496674D01*
X337563Y496751D01*
X337522Y496829D01*
X337483Y496909D01*
X337449Y496990D01*
X337417Y497073D01*
X337390Y497158D01*
X337365Y497243D01*
X337345Y497329D01*
X337328Y497416D01*
X337315Y497504D01*
X337306Y497592D01*
X337300Y497680D01*
X337298Y497769D01*
X337298Y498814D01*
X337300Y498903D01*
X337306Y498991D01*
X337315Y499079D01*
X337328Y499167D01*
X337345Y499254D01*
X337365Y499340D01*
X337390Y499425D01*
X337417Y499510D01*
X337449Y499593D01*
X337483Y499674D01*
X337522Y499754D01*
X337563Y499832D01*
X337608Y499909D01*
X337656Y499983D01*
X337707Y500056D01*
X337761Y500126D01*
X337819Y500193D01*
X337879Y500259D01*
X337941Y500321D01*
X338007Y500381D01*
X338074Y500439D01*
X338144Y500493D01*
X338217Y500544D01*
X338291Y500592D01*
X338368Y500637D01*
X338446Y500678D01*
X338526Y500717D01*
X338607Y500751D01*
X338690Y500783D01*
X338775Y500810D01*
X338860Y500835D01*
X338946Y500855D01*
X339033Y500872D01*
X339121Y500885D01*
X339209Y500894D01*
X339297Y500900D01*
X339386Y500902D01*
X342519Y500902D01*
X342519Y505079D01*
X337298Y505079D01*
X333375Y495681D02*
X330242Y495681D01*
X330153Y495683D01*
X330065Y495689D01*
X329977Y495698D01*
X329889Y495711D01*
X329802Y495728D01*
X329716Y495748D01*
X329631Y495773D01*
X329546Y495800D01*
X329463Y495832D01*
X329382Y495866D01*
X329302Y495905D01*
X329224Y495946D01*
X329147Y495991D01*
X329073Y496039D01*
X329000Y496090D01*
X328930Y496144D01*
X328863Y496202D01*
X328797Y496262D01*
X328735Y496324D01*
X328675Y496390D01*
X328617Y496457D01*
X328563Y496527D01*
X328512Y496600D01*
X328464Y496674D01*
X328419Y496751D01*
X328378Y496829D01*
X328339Y496909D01*
X328305Y496990D01*
X328273Y497073D01*
X328246Y497158D01*
X328221Y497243D01*
X328201Y497329D01*
X328184Y497416D01*
X328171Y497504D01*
X328162Y497592D01*
X328156Y497680D01*
X328154Y497769D01*
X328154Y498814D01*
X328156Y498903D01*
X328162Y498991D01*
X328171Y499079D01*
X328184Y499167D01*
X328201Y499254D01*
X328221Y499340D01*
X328246Y499425D01*
X328273Y499510D01*
X328305Y499593D01*
X328339Y499674D01*
X328378Y499754D01*
X328419Y499832D01*
X328464Y499909D01*
X328512Y499983D01*
X328563Y500056D01*
X328617Y500126D01*
X328675Y500193D01*
X328735Y500259D01*
X328797Y500321D01*
X328863Y500381D01*
X328930Y500439D01*
X329000Y500493D01*
X329073Y500544D01*
X329147Y500592D01*
X329224Y500637D01*
X329302Y500678D01*
X329382Y500717D01*
X329463Y500751D01*
X329546Y500783D01*
X329631Y500810D01*
X329716Y500835D01*
X329802Y500855D01*
X329889Y500872D01*
X329977Y500885D01*
X330065Y500894D01*
X330153Y500900D01*
X330242Y500902D01*
X333375Y500902D01*
X333375Y505079D01*
X328154Y505079D01*
X324231Y495681D02*
X321098Y495681D01*
X321009Y495683D01*
X320921Y495689D01*
X320833Y495698D01*
X320745Y495711D01*
X320658Y495728D01*
X320572Y495748D01*
X320487Y495773D01*
X320402Y495800D01*
X320319Y495832D01*
X320238Y495866D01*
X320158Y495905D01*
X320080Y495946D01*
X320003Y495991D01*
X319929Y496039D01*
X319856Y496090D01*
X319786Y496144D01*
X319719Y496202D01*
X319653Y496262D01*
X319591Y496324D01*
X319531Y496390D01*
X319473Y496457D01*
X319419Y496527D01*
X319368Y496600D01*
X319320Y496674D01*
X319275Y496751D01*
X319234Y496829D01*
X319195Y496909D01*
X319161Y496990D01*
X319129Y497073D01*
X319102Y497158D01*
X319077Y497243D01*
X319057Y497329D01*
X319040Y497416D01*
X319027Y497504D01*
X319018Y497592D01*
X319012Y497680D01*
X319010Y497769D01*
X319010Y498814D01*
X319012Y498903D01*
X319018Y498991D01*
X319027Y499079D01*
X319040Y499167D01*
X319057Y499254D01*
X319077Y499340D01*
X319102Y499425D01*
X319129Y499510D01*
X319161Y499593D01*
X319195Y499674D01*
X319234Y499754D01*
X319275Y499832D01*
X319320Y499909D01*
X319368Y499983D01*
X319419Y500056D01*
X319473Y500126D01*
X319531Y500193D01*
X319591Y500259D01*
X319653Y500321D01*
X319719Y500381D01*
X319786Y500439D01*
X319856Y500493D01*
X319929Y500544D01*
X320003Y500592D01*
X320080Y500637D01*
X320158Y500678D01*
X320238Y500717D01*
X320319Y500751D01*
X320402Y500783D01*
X320487Y500810D01*
X320572Y500835D01*
X320658Y500855D01*
X320745Y500872D01*
X320833Y500885D01*
X320921Y500894D01*
X321009Y500900D01*
X321098Y500902D01*
X324231Y500902D01*
X324231Y505079D01*
X319010Y505079D01*
D11*
X292100Y635000D03*
X317500Y635000D03*
D12*
X197104Y698500D02*
X183896Y698500D01*
X183896Y673100D02*
X197104Y673100D01*
X260096Y673100D02*
X273304Y673100D01*
X273304Y698500D02*
X260096Y698500D01*
X197104Y647700D02*
X183896Y647700D01*
X183896Y622300D02*
X197104Y622300D01*
X260096Y647700D02*
X273304Y647700D01*
X273304Y622300D02*
X260096Y622300D01*
D13*
X317500Y571500D03*
X317500Y596900D03*
D14*
X88900Y584200D03*
X88900Y736600D03*
X139700Y584200D03*
X139700Y736600D03*
D15*
X190500Y546100D03*
X38100Y546100D03*
D12*
X342900Y717296D02*
X342900Y730504D01*
X292100Y730504D02*
X292100Y717296D01*
X317500Y705104D02*
X317500Y691896D01*
D16*
X266700Y533400D03*
X241300Y533400D03*
X241300Y508000D03*
D17*
X266700Y698500D02*
X317500Y698500D01*
X190500Y622300D02*
X177800Y609600D01*
X127254Y741755D02*
X134545Y749046D01*
X254232Y698500D02*
X266700Y698500D01*
X190500Y622300D02*
X161290Y593090D01*
X161290Y575257D01*
X134545Y749046D02*
X203686Y749046D01*
X254232Y698500D01*
X127254Y665555D02*
X127254Y741755D01*
X76200Y571500D02*
X88900Y558800D01*
X144833Y558800D01*
X76200Y614501D02*
X127254Y665555D01*
X76200Y614501D02*
X76200Y571500D01*
X144833Y558800D02*
X161290Y575257D01*
X70612Y546100D02*
X38100Y546100D01*
X224417Y508000D02*
X236355Y496062D01*
X253238Y496062D02*
X254000Y495300D01*
X253238Y496062D02*
X236355Y496062D01*
X254000Y495300D02*
X257556Y498856D01*
X329438Y566555D02*
X329438Y570738D01*
X261739Y498856D02*
X257556Y498856D01*
X261739Y498856D02*
X329438Y566555D01*
X330835Y640524D02*
X330200Y641159D01*
X330200Y660400D01*
X333756Y663956D01*
X333988Y663956D01*
X354838Y735838D02*
X355600Y736600D01*
X354838Y684806D02*
X333988Y663956D01*
X354838Y684806D02*
X354838Y735838D01*
X355600Y736600D02*
X342900Y749300D01*
X330200Y749300D01*
X317500Y736600D01*
X317500Y698500D01*
X108712Y508000D02*
X70612Y546100D01*
X108712Y508000D02*
X224417Y508000D01*
X329438Y570738D02*
X330835Y572135D01*
X330835Y640524D01*
X317500Y635000D02*
X317500Y596900D01*
X266700Y546100D02*
X266700Y533400D01*
X262382Y537718D01*
X262382Y542133D01*
X254000Y550515D02*
X254000Y571500D01*
X254000Y550515D02*
X262382Y542133D01*
X215900Y609600D02*
X215900Y685800D01*
X203200Y698500D01*
X190500Y698500D01*
X215900Y609600D02*
X254000Y571500D01*
X266700Y546100D02*
X317500Y596900D01*
X144855Y571754D02*
X134545Y571754D01*
X144855Y571754D02*
X152146Y579045D01*
X122099Y584200D02*
X88900Y584200D01*
X122099Y584200D02*
X134545Y571754D01*
X152146Y609346D02*
X190500Y647700D01*
X152146Y609346D02*
X152146Y579045D01*
X228600Y520700D02*
X241300Y533400D01*
X67056Y567712D02*
X67056Y567944D01*
X63500Y571500D01*
X114068Y520700D02*
X228600Y520700D01*
X114068Y520700D02*
X67056Y567712D01*
X63500Y571500D02*
X63500Y622300D01*
X88900Y647700D01*
X88900Y736600D01*
X317500Y571500D02*
X254000Y508000D01*
X241300Y508000D01*
X253238Y538345D02*
X246245Y545338D01*
X253238Y538345D02*
X253238Y528455D01*
X246245Y545338D02*
X191262Y545338D01*
X190500Y546100D01*
X241300Y516517D02*
X241300Y508000D01*
X241300Y516517D02*
X253238Y528455D01*
X203200Y736600D02*
X139700Y736600D01*
X203200Y736600D02*
X266700Y673100D01*
X330200Y673100D02*
X342900Y685800D01*
X330200Y673100D02*
X266700Y673100D01*
X342900Y685800D02*
X342900Y723900D01*
X279400Y647700D02*
X266700Y647700D01*
X279400Y647700D02*
X292100Y635000D01*
X139700Y647700D02*
X139700Y584200D01*
X139700Y647700D02*
X165100Y673100D01*
X190500Y673100D01*
X171958Y693555D02*
X171958Y703445D01*
X178951Y710438D01*
X225044Y689588D02*
X225044Y689356D01*
X266700Y647700D01*
X204194Y710438D02*
X178951Y710438D01*
X204194Y710438D02*
X225044Y689588D01*
X190500Y675013D02*
X190500Y673100D01*
X190500Y675013D02*
X171958Y693555D01*
M02*
