G04 EAGLE Gerber RS-274X export*
G75*
%MOMM*%
%FSLAX34Y34*%
%LPD*%
%INTop Copper*%
%IPPOS*%
%AMOC8*
5,1,8,0,0,1.08239X$1,22.5*%
G01*
%ADD10C,0.076200*%
%ADD11C,0.152400*%
%ADD12P,1.732040X8X22.500000*%
%ADD13C,1.320800*%
%ADD14P,1.429621X8X112.500000*%
%ADD15P,1.539592X8X112.500000*%
%ADD16P,1.539592X8X202.500000*%
%ADD17P,1.429621X8X202.500000*%


D10*
X76581Y679210D02*
X78627Y680847D01*
X78627Y673481D01*
X76581Y673481D02*
X80673Y673481D01*
X84258Y673481D02*
X84258Y680847D01*
X88350Y680847D02*
X84258Y676346D01*
X85895Y677982D02*
X88350Y673481D01*
X140081Y679210D02*
X142127Y680847D01*
X142127Y673481D01*
X140081Y673481D02*
X144173Y673481D01*
X147758Y673481D02*
X147758Y680847D01*
X151850Y680847D02*
X147758Y676346D01*
X149395Y677982D02*
X151850Y673481D01*
X129632Y541148D02*
X129717Y541146D01*
X129802Y541140D01*
X129886Y541130D01*
X129970Y541117D01*
X130054Y541099D01*
X130136Y541078D01*
X130217Y541053D01*
X130297Y541024D01*
X130376Y540991D01*
X130453Y540955D01*
X130528Y540915D01*
X130602Y540872D01*
X130673Y540826D01*
X130742Y540776D01*
X130809Y540723D01*
X130873Y540667D01*
X130934Y540608D01*
X130993Y540547D01*
X131049Y540483D01*
X131102Y540416D01*
X131152Y540347D01*
X131198Y540276D01*
X131241Y540202D01*
X131281Y540127D01*
X131317Y540050D01*
X131350Y539971D01*
X131379Y539891D01*
X131404Y539810D01*
X131425Y539728D01*
X131443Y539644D01*
X131456Y539560D01*
X131466Y539476D01*
X131472Y539391D01*
X131474Y539306D01*
X129632Y541147D02*
X129536Y541145D01*
X129440Y541139D01*
X129345Y541129D01*
X129250Y541116D01*
X129155Y541098D01*
X129062Y541077D01*
X128969Y541052D01*
X128878Y541023D01*
X128787Y540991D01*
X128698Y540955D01*
X128611Y540915D01*
X128525Y540872D01*
X128441Y540826D01*
X128359Y540776D01*
X128279Y540722D01*
X128202Y540666D01*
X128127Y540606D01*
X128054Y540544D01*
X127984Y540478D01*
X127916Y540410D01*
X127851Y540339D01*
X127790Y540266D01*
X127731Y540190D01*
X127675Y540111D01*
X127623Y540031D01*
X127574Y539948D01*
X127528Y539864D01*
X127486Y539778D01*
X127448Y539690D01*
X127413Y539601D01*
X127381Y539510D01*
X130859Y537874D02*
X130919Y537933D01*
X130976Y537995D01*
X131031Y538059D01*
X131082Y538126D01*
X131131Y538195D01*
X131177Y538265D01*
X131220Y538338D01*
X131260Y538412D01*
X131296Y538488D01*
X131329Y538566D01*
X131359Y538645D01*
X131386Y538725D01*
X131409Y538806D01*
X131428Y538888D01*
X131444Y538970D01*
X131457Y539054D01*
X131466Y539138D01*
X131471Y539222D01*
X131473Y539306D01*
X130859Y537873D02*
X127381Y533781D01*
X131473Y533781D01*
X134696Y540329D02*
X134696Y541147D01*
X138788Y541147D01*
X136742Y533781D01*
X142012Y537464D02*
X142014Y537617D01*
X142020Y537770D01*
X142029Y537922D01*
X142043Y538075D01*
X142060Y538227D01*
X142081Y538378D01*
X142106Y538529D01*
X142135Y538679D01*
X142167Y538829D01*
X142204Y538977D01*
X142244Y539125D01*
X142287Y539272D01*
X142335Y539417D01*
X142386Y539561D01*
X142440Y539704D01*
X142499Y539846D01*
X142560Y539985D01*
X142626Y540124D01*
X142652Y540194D01*
X142682Y540264D01*
X142715Y540331D01*
X142751Y540397D01*
X142790Y540461D01*
X142833Y540523D01*
X142879Y540582D01*
X142927Y540640D01*
X142978Y540694D01*
X143032Y540747D01*
X143089Y540796D01*
X143148Y540843D01*
X143209Y540886D01*
X143272Y540927D01*
X143337Y540964D01*
X143404Y540999D01*
X143473Y541029D01*
X143543Y541057D01*
X143614Y541080D01*
X143686Y541101D01*
X143759Y541117D01*
X143833Y541130D01*
X143908Y541140D01*
X143983Y541145D01*
X144058Y541147D01*
X144133Y541145D01*
X144208Y541140D01*
X144283Y541130D01*
X144357Y541117D01*
X144430Y541101D01*
X144502Y541080D01*
X144573Y541057D01*
X144643Y541029D01*
X144712Y540999D01*
X144779Y540964D01*
X144844Y540927D01*
X144907Y540886D01*
X144968Y540843D01*
X145027Y540796D01*
X145084Y540747D01*
X145138Y540694D01*
X145189Y540640D01*
X145238Y540582D01*
X145283Y540523D01*
X145326Y540461D01*
X145365Y540397D01*
X145402Y540331D01*
X145434Y540263D01*
X145464Y540194D01*
X145490Y540124D01*
X145555Y539986D01*
X145617Y539846D01*
X145675Y539704D01*
X145730Y539561D01*
X145781Y539417D01*
X145829Y539272D01*
X145872Y539125D01*
X145912Y538978D01*
X145949Y538829D01*
X145981Y538679D01*
X146010Y538529D01*
X146035Y538378D01*
X146056Y538227D01*
X146073Y538075D01*
X146087Y537922D01*
X146096Y537770D01*
X146102Y537617D01*
X146104Y537464D01*
X142011Y537464D02*
X142013Y537311D01*
X142019Y537158D01*
X142028Y537005D01*
X142042Y536853D01*
X142059Y536701D01*
X142080Y536550D01*
X142105Y536399D01*
X142134Y536248D01*
X142166Y536099D01*
X142203Y535950D01*
X142243Y535803D01*
X142286Y535656D01*
X142334Y535511D01*
X142385Y535366D01*
X142440Y535224D01*
X142498Y535082D01*
X142560Y534942D01*
X142625Y534804D01*
X142626Y534804D02*
X142652Y534733D01*
X142682Y534664D01*
X142715Y534597D01*
X142751Y534531D01*
X142790Y534467D01*
X142833Y534405D01*
X142879Y534346D01*
X142927Y534288D01*
X142978Y534234D01*
X143032Y534181D01*
X143089Y534132D01*
X143148Y534085D01*
X143209Y534042D01*
X143272Y534001D01*
X143337Y533964D01*
X143404Y533929D01*
X143473Y533899D01*
X143543Y533871D01*
X143614Y533848D01*
X143686Y533827D01*
X143759Y533811D01*
X143833Y533798D01*
X143908Y533788D01*
X143983Y533783D01*
X144058Y533781D01*
X145489Y534804D02*
X145554Y534942D01*
X145616Y535082D01*
X145674Y535224D01*
X145729Y535367D01*
X145780Y535511D01*
X145828Y535656D01*
X145871Y535803D01*
X145911Y535951D01*
X145948Y536099D01*
X145980Y536249D01*
X146009Y536399D01*
X146034Y536550D01*
X146055Y536701D01*
X146072Y536853D01*
X146086Y537006D01*
X146095Y537158D01*
X146101Y537311D01*
X146103Y537464D01*
X145490Y534804D02*
X145464Y534734D01*
X145434Y534664D01*
X145402Y534597D01*
X145365Y534531D01*
X145326Y534467D01*
X145283Y534405D01*
X145237Y534346D01*
X145189Y534288D01*
X145138Y534234D01*
X145084Y534181D01*
X145027Y534132D01*
X144968Y534085D01*
X144907Y534042D01*
X144844Y534001D01*
X144779Y533964D01*
X144712Y533929D01*
X144643Y533899D01*
X144573Y533871D01*
X144502Y533848D01*
X144430Y533827D01*
X144357Y533811D01*
X144283Y533798D01*
X144208Y533788D01*
X144133Y533783D01*
X144058Y533781D01*
X142421Y535418D02*
X145694Y539510D01*
X292481Y649718D02*
X294118Y655447D01*
X292481Y649718D02*
X296573Y649718D01*
X295346Y651355D02*
X295346Y648081D01*
X299796Y654629D02*
X299796Y655447D01*
X303888Y655447D01*
X301842Y648081D01*
X307277Y649309D02*
X307277Y652992D01*
X307276Y649309D02*
X307278Y649240D01*
X307284Y649172D01*
X307293Y649103D01*
X307307Y649036D01*
X307324Y648969D01*
X307345Y648903D01*
X307369Y648839D01*
X307398Y648776D01*
X307429Y648715D01*
X307464Y648656D01*
X307502Y648598D01*
X307544Y648543D01*
X307588Y648491D01*
X307636Y648441D01*
X307686Y648393D01*
X307738Y648349D01*
X307793Y648307D01*
X307851Y648269D01*
X307910Y648234D01*
X307971Y648203D01*
X308034Y648174D01*
X308098Y648150D01*
X308164Y648129D01*
X308231Y648112D01*
X308298Y648098D01*
X308367Y648089D01*
X308435Y648083D01*
X308504Y648081D01*
X310551Y648081D01*
X310551Y652992D01*
X314198Y655447D02*
X314198Y648081D01*
X314198Y655447D02*
X317472Y655447D01*
X317472Y652173D02*
X314198Y652173D01*
X279781Y591947D02*
X279781Y584581D01*
X283055Y584581D01*
X286121Y584581D02*
X289395Y584581D01*
X286121Y584581D02*
X286121Y591947D01*
X289395Y591947D01*
X288576Y588673D02*
X286121Y588673D01*
X292445Y591947D02*
X292445Y584581D01*
X292445Y591947D02*
X294491Y591947D01*
X294580Y591945D01*
X294669Y591939D01*
X294758Y591929D01*
X294846Y591916D01*
X294934Y591899D01*
X295021Y591877D01*
X295106Y591852D01*
X295191Y591824D01*
X295274Y591791D01*
X295356Y591755D01*
X295436Y591716D01*
X295514Y591673D01*
X295590Y591627D01*
X295665Y591577D01*
X295737Y591524D01*
X295806Y591468D01*
X295873Y591409D01*
X295938Y591348D01*
X295999Y591283D01*
X296058Y591216D01*
X296114Y591147D01*
X296167Y591075D01*
X296217Y591000D01*
X296263Y590924D01*
X296306Y590846D01*
X296345Y590766D01*
X296381Y590684D01*
X296414Y590601D01*
X296442Y590516D01*
X296467Y590431D01*
X296489Y590344D01*
X296506Y590256D01*
X296519Y590168D01*
X296529Y590079D01*
X296535Y589990D01*
X296537Y589901D01*
X296537Y586627D01*
X296535Y586538D01*
X296529Y586449D01*
X296519Y586360D01*
X296506Y586272D01*
X296489Y586184D01*
X296467Y586097D01*
X296442Y586012D01*
X296414Y585927D01*
X296381Y585844D01*
X296345Y585762D01*
X296306Y585682D01*
X296263Y585604D01*
X296217Y585528D01*
X296167Y585453D01*
X296114Y585381D01*
X296058Y585312D01*
X295999Y585245D01*
X295938Y585180D01*
X295873Y585119D01*
X295806Y585060D01*
X295737Y585004D01*
X295665Y584951D01*
X295590Y584901D01*
X295514Y584855D01*
X295436Y584812D01*
X295356Y584773D01*
X295274Y584737D01*
X295191Y584704D01*
X295106Y584676D01*
X295021Y584651D01*
X294934Y584629D01*
X294846Y584612D01*
X294758Y584599D01*
X294669Y584589D01*
X294580Y584583D01*
X294491Y584581D01*
X292445Y584581D01*
X267081Y513701D02*
X267081Y510427D01*
X267081Y513701D02*
X267083Y513790D01*
X267089Y513879D01*
X267099Y513968D01*
X267112Y514056D01*
X267129Y514144D01*
X267151Y514231D01*
X267176Y514316D01*
X267204Y514401D01*
X267237Y514484D01*
X267273Y514566D01*
X267312Y514646D01*
X267355Y514724D01*
X267401Y514800D01*
X267451Y514875D01*
X267504Y514947D01*
X267560Y515016D01*
X267619Y515083D01*
X267680Y515148D01*
X267745Y515209D01*
X267812Y515268D01*
X267881Y515324D01*
X267953Y515377D01*
X268028Y515427D01*
X268104Y515473D01*
X268182Y515516D01*
X268262Y515555D01*
X268344Y515591D01*
X268427Y515624D01*
X268512Y515652D01*
X268597Y515677D01*
X268684Y515699D01*
X268772Y515716D01*
X268860Y515729D01*
X268949Y515739D01*
X269038Y515745D01*
X269127Y515747D01*
X269216Y515745D01*
X269305Y515739D01*
X269394Y515729D01*
X269482Y515716D01*
X269570Y515699D01*
X269657Y515677D01*
X269742Y515652D01*
X269827Y515624D01*
X269910Y515591D01*
X269992Y515555D01*
X270072Y515516D01*
X270150Y515473D01*
X270226Y515427D01*
X270301Y515377D01*
X270373Y515324D01*
X270442Y515268D01*
X270509Y515209D01*
X270574Y515148D01*
X270635Y515083D01*
X270694Y515016D01*
X270750Y514947D01*
X270803Y514875D01*
X270853Y514800D01*
X270899Y514724D01*
X270942Y514646D01*
X270981Y514566D01*
X271017Y514484D01*
X271050Y514401D01*
X271078Y514316D01*
X271103Y514231D01*
X271125Y514144D01*
X271142Y514056D01*
X271155Y513968D01*
X271165Y513879D01*
X271171Y513790D01*
X271173Y513701D01*
X271173Y510427D01*
X271171Y510338D01*
X271165Y510249D01*
X271155Y510160D01*
X271142Y510072D01*
X271125Y509984D01*
X271103Y509897D01*
X271078Y509812D01*
X271050Y509727D01*
X271017Y509644D01*
X270981Y509562D01*
X270942Y509482D01*
X270899Y509404D01*
X270853Y509328D01*
X270803Y509253D01*
X270750Y509181D01*
X270694Y509112D01*
X270635Y509045D01*
X270574Y508980D01*
X270509Y508919D01*
X270442Y508860D01*
X270373Y508804D01*
X270301Y508751D01*
X270226Y508701D01*
X270150Y508655D01*
X270072Y508612D01*
X269992Y508573D01*
X269910Y508537D01*
X269827Y508504D01*
X269742Y508476D01*
X269657Y508451D01*
X269570Y508429D01*
X269482Y508412D01*
X269394Y508399D01*
X269305Y508389D01*
X269216Y508383D01*
X269127Y508381D01*
X269038Y508383D01*
X268949Y508389D01*
X268860Y508399D01*
X268772Y508412D01*
X268684Y508429D01*
X268597Y508451D01*
X268512Y508476D01*
X268427Y508504D01*
X268344Y508537D01*
X268262Y508573D01*
X268182Y508612D01*
X268104Y508655D01*
X268028Y508701D01*
X267953Y508751D01*
X267881Y508804D01*
X267812Y508860D01*
X267745Y508919D01*
X267680Y508980D01*
X267619Y509045D01*
X267560Y509112D01*
X267504Y509181D01*
X267451Y509253D01*
X267401Y509328D01*
X267355Y509404D01*
X267312Y509482D01*
X267273Y509562D01*
X267237Y509644D01*
X267204Y509727D01*
X267176Y509812D01*
X267151Y509897D01*
X267129Y509984D01*
X267112Y510072D01*
X267099Y510160D01*
X267089Y510249D01*
X267083Y510338D01*
X267081Y510427D01*
X270355Y510018D02*
X271992Y508381D01*
X305181Y730010D02*
X307227Y731647D01*
X307227Y724281D01*
X305181Y724281D02*
X309273Y724281D01*
X312497Y727964D02*
X312499Y728117D01*
X312505Y728270D01*
X312514Y728422D01*
X312528Y728575D01*
X312545Y728727D01*
X312566Y728878D01*
X312591Y729029D01*
X312620Y729179D01*
X312652Y729329D01*
X312689Y729477D01*
X312729Y729625D01*
X312772Y729772D01*
X312820Y729917D01*
X312871Y730061D01*
X312925Y730204D01*
X312984Y730346D01*
X313045Y730485D01*
X313111Y730624D01*
X313110Y730624D02*
X313136Y730694D01*
X313166Y730764D01*
X313199Y730831D01*
X313235Y730897D01*
X313274Y730961D01*
X313317Y731023D01*
X313363Y731082D01*
X313411Y731140D01*
X313462Y731194D01*
X313516Y731247D01*
X313573Y731296D01*
X313632Y731343D01*
X313693Y731386D01*
X313756Y731427D01*
X313821Y731464D01*
X313888Y731499D01*
X313957Y731529D01*
X314027Y731557D01*
X314098Y731580D01*
X314170Y731601D01*
X314243Y731617D01*
X314317Y731630D01*
X314392Y731640D01*
X314467Y731645D01*
X314542Y731647D01*
X314617Y731645D01*
X314692Y731640D01*
X314767Y731630D01*
X314841Y731617D01*
X314914Y731601D01*
X314986Y731580D01*
X315057Y731557D01*
X315127Y731529D01*
X315196Y731499D01*
X315263Y731464D01*
X315328Y731427D01*
X315391Y731386D01*
X315452Y731343D01*
X315511Y731296D01*
X315568Y731247D01*
X315622Y731194D01*
X315673Y731140D01*
X315722Y731082D01*
X315767Y731023D01*
X315810Y730961D01*
X315849Y730897D01*
X315886Y730831D01*
X315918Y730763D01*
X315948Y730694D01*
X315974Y730624D01*
X316039Y730486D01*
X316101Y730346D01*
X316159Y730204D01*
X316214Y730061D01*
X316265Y729917D01*
X316313Y729772D01*
X316356Y729625D01*
X316396Y729478D01*
X316433Y729329D01*
X316465Y729179D01*
X316494Y729029D01*
X316519Y728878D01*
X316540Y728727D01*
X316557Y728575D01*
X316571Y728422D01*
X316580Y728270D01*
X316586Y728117D01*
X316588Y727964D01*
X312496Y727964D02*
X312498Y727811D01*
X312504Y727658D01*
X312513Y727505D01*
X312527Y727353D01*
X312544Y727201D01*
X312565Y727050D01*
X312590Y726899D01*
X312619Y726748D01*
X312651Y726599D01*
X312688Y726450D01*
X312728Y726303D01*
X312771Y726156D01*
X312819Y726011D01*
X312870Y725866D01*
X312925Y725724D01*
X312983Y725582D01*
X313045Y725442D01*
X313110Y725304D01*
X313136Y725233D01*
X313166Y725164D01*
X313199Y725097D01*
X313235Y725031D01*
X313274Y724967D01*
X313317Y724905D01*
X313363Y724846D01*
X313411Y724788D01*
X313462Y724734D01*
X313516Y724681D01*
X313573Y724632D01*
X313632Y724585D01*
X313693Y724542D01*
X313756Y724501D01*
X313821Y724464D01*
X313888Y724429D01*
X313957Y724399D01*
X314027Y724371D01*
X314098Y724348D01*
X314170Y724327D01*
X314243Y724311D01*
X314317Y724298D01*
X314392Y724288D01*
X314467Y724283D01*
X314542Y724281D01*
X315974Y725304D02*
X316039Y725442D01*
X316101Y725582D01*
X316159Y725724D01*
X316214Y725867D01*
X316265Y726011D01*
X316313Y726156D01*
X316356Y726303D01*
X316396Y726451D01*
X316433Y726599D01*
X316465Y726749D01*
X316494Y726899D01*
X316519Y727050D01*
X316540Y727201D01*
X316557Y727353D01*
X316571Y727506D01*
X316580Y727658D01*
X316586Y727811D01*
X316588Y727964D01*
X315974Y725304D02*
X315948Y725234D01*
X315918Y725164D01*
X315886Y725097D01*
X315849Y725031D01*
X315810Y724967D01*
X315767Y724905D01*
X315721Y724846D01*
X315673Y724788D01*
X315622Y724734D01*
X315568Y724681D01*
X315511Y724632D01*
X315452Y724585D01*
X315391Y724542D01*
X315328Y724501D01*
X315263Y724464D01*
X315196Y724429D01*
X315127Y724399D01*
X315057Y724371D01*
X314986Y724348D01*
X314914Y724327D01*
X314841Y724311D01*
X314767Y724298D01*
X314692Y724288D01*
X314617Y724283D01*
X314542Y724281D01*
X312905Y725918D02*
X316179Y730010D01*
X319812Y727964D02*
X319814Y728117D01*
X319820Y728270D01*
X319829Y728422D01*
X319843Y728575D01*
X319860Y728727D01*
X319881Y728878D01*
X319906Y729029D01*
X319935Y729179D01*
X319967Y729329D01*
X320004Y729477D01*
X320044Y729625D01*
X320087Y729772D01*
X320135Y729917D01*
X320186Y730061D01*
X320240Y730204D01*
X320299Y730346D01*
X320360Y730485D01*
X320426Y730624D01*
X320452Y730694D01*
X320482Y730764D01*
X320515Y730831D01*
X320551Y730897D01*
X320590Y730961D01*
X320633Y731023D01*
X320679Y731082D01*
X320727Y731140D01*
X320778Y731194D01*
X320832Y731247D01*
X320889Y731296D01*
X320948Y731343D01*
X321009Y731386D01*
X321072Y731427D01*
X321137Y731464D01*
X321204Y731499D01*
X321273Y731529D01*
X321343Y731557D01*
X321414Y731580D01*
X321486Y731601D01*
X321559Y731617D01*
X321633Y731630D01*
X321708Y731640D01*
X321783Y731645D01*
X321858Y731647D01*
X321933Y731645D01*
X322008Y731640D01*
X322083Y731630D01*
X322157Y731617D01*
X322230Y731601D01*
X322302Y731580D01*
X322373Y731557D01*
X322443Y731529D01*
X322512Y731499D01*
X322579Y731464D01*
X322644Y731427D01*
X322707Y731386D01*
X322768Y731343D01*
X322827Y731296D01*
X322884Y731247D01*
X322938Y731194D01*
X322989Y731140D01*
X323038Y731082D01*
X323083Y731023D01*
X323126Y730961D01*
X323165Y730897D01*
X323202Y730831D01*
X323234Y730763D01*
X323264Y730694D01*
X323290Y730624D01*
X323355Y730486D01*
X323417Y730346D01*
X323475Y730204D01*
X323530Y730061D01*
X323581Y729917D01*
X323629Y729772D01*
X323672Y729625D01*
X323712Y729478D01*
X323749Y729329D01*
X323781Y729179D01*
X323810Y729029D01*
X323835Y728878D01*
X323856Y728727D01*
X323873Y728575D01*
X323887Y728422D01*
X323896Y728270D01*
X323902Y728117D01*
X323904Y727964D01*
X319811Y727964D02*
X319813Y727811D01*
X319819Y727658D01*
X319828Y727505D01*
X319842Y727353D01*
X319859Y727201D01*
X319880Y727050D01*
X319905Y726899D01*
X319934Y726748D01*
X319966Y726599D01*
X320003Y726450D01*
X320043Y726303D01*
X320086Y726156D01*
X320134Y726011D01*
X320185Y725866D01*
X320240Y725724D01*
X320298Y725582D01*
X320360Y725442D01*
X320425Y725304D01*
X320426Y725304D02*
X320452Y725233D01*
X320482Y725164D01*
X320515Y725097D01*
X320551Y725031D01*
X320590Y724967D01*
X320633Y724905D01*
X320679Y724846D01*
X320727Y724788D01*
X320778Y724734D01*
X320832Y724681D01*
X320889Y724632D01*
X320948Y724585D01*
X321009Y724542D01*
X321072Y724501D01*
X321137Y724464D01*
X321204Y724429D01*
X321273Y724399D01*
X321343Y724371D01*
X321414Y724348D01*
X321486Y724327D01*
X321559Y724311D01*
X321633Y724298D01*
X321708Y724288D01*
X321783Y724283D01*
X321858Y724281D01*
X323289Y725304D02*
X323354Y725442D01*
X323416Y725582D01*
X323474Y725724D01*
X323529Y725867D01*
X323580Y726011D01*
X323628Y726156D01*
X323671Y726303D01*
X323711Y726451D01*
X323748Y726599D01*
X323780Y726749D01*
X323809Y726899D01*
X323834Y727050D01*
X323855Y727201D01*
X323872Y727353D01*
X323886Y727506D01*
X323895Y727658D01*
X323901Y727811D01*
X323903Y727964D01*
X323290Y725304D02*
X323264Y725234D01*
X323234Y725164D01*
X323202Y725097D01*
X323165Y725031D01*
X323126Y724967D01*
X323083Y724905D01*
X323037Y724846D01*
X322989Y724788D01*
X322938Y724734D01*
X322884Y724681D01*
X322827Y724632D01*
X322768Y724585D01*
X322707Y724542D01*
X322644Y724501D01*
X322579Y724464D01*
X322512Y724429D01*
X322443Y724399D01*
X322373Y724371D01*
X322302Y724348D01*
X322230Y724327D01*
X322157Y724311D01*
X322083Y724298D01*
X322008Y724288D01*
X321933Y724283D01*
X321858Y724281D01*
X320221Y725918D02*
X323494Y730010D01*
X327488Y731647D02*
X327488Y724281D01*
X327488Y727146D02*
X331580Y731647D01*
X329125Y728782D02*
X331580Y724281D01*
X228219Y650536D02*
X228219Y648081D01*
X228219Y650536D02*
X228217Y650614D01*
X228212Y650692D01*
X228202Y650769D01*
X228189Y650846D01*
X228173Y650922D01*
X228153Y650997D01*
X228129Y651071D01*
X228102Y651144D01*
X228071Y651216D01*
X228037Y651286D01*
X228000Y651355D01*
X227959Y651421D01*
X227915Y651486D01*
X227869Y651548D01*
X227819Y651608D01*
X227767Y651666D01*
X227712Y651721D01*
X227654Y651773D01*
X227594Y651823D01*
X227532Y651869D01*
X227467Y651913D01*
X227401Y651954D01*
X227332Y651991D01*
X227262Y652025D01*
X227190Y652056D01*
X227117Y652083D01*
X227043Y652107D01*
X226968Y652127D01*
X226892Y652143D01*
X226815Y652156D01*
X226738Y652166D01*
X226660Y652171D01*
X226582Y652173D01*
X225764Y652173D01*
X225684Y652171D01*
X225604Y652165D01*
X225524Y652155D01*
X225445Y652142D01*
X225366Y652124D01*
X225289Y652103D01*
X225213Y652077D01*
X225138Y652048D01*
X225064Y652016D01*
X224992Y651980D01*
X224922Y651940D01*
X224855Y651897D01*
X224789Y651851D01*
X224726Y651801D01*
X224665Y651749D01*
X224606Y651694D01*
X224551Y651635D01*
X224499Y651575D01*
X224449Y651511D01*
X224403Y651445D01*
X224360Y651378D01*
X224320Y651308D01*
X224284Y651236D01*
X224252Y651162D01*
X224223Y651088D01*
X224197Y651011D01*
X224176Y650934D01*
X224158Y650855D01*
X224145Y650776D01*
X224135Y650696D01*
X224129Y650616D01*
X224127Y650536D01*
X224127Y648081D01*
X220853Y648081D01*
X220853Y652173D01*
X228219Y655396D02*
X228219Y657852D01*
X228217Y657930D01*
X228212Y658008D01*
X228202Y658085D01*
X228189Y658162D01*
X228173Y658238D01*
X228153Y658313D01*
X228129Y658387D01*
X228102Y658460D01*
X228071Y658532D01*
X228037Y658602D01*
X228000Y658671D01*
X227959Y658737D01*
X227915Y658802D01*
X227869Y658864D01*
X227819Y658924D01*
X227767Y658982D01*
X227712Y659037D01*
X227654Y659089D01*
X227594Y659139D01*
X227532Y659185D01*
X227467Y659229D01*
X227401Y659270D01*
X227332Y659307D01*
X227262Y659341D01*
X227190Y659372D01*
X227117Y659399D01*
X227043Y659423D01*
X226968Y659443D01*
X226892Y659459D01*
X226815Y659472D01*
X226738Y659482D01*
X226660Y659487D01*
X226582Y659489D01*
X226582Y659488D02*
X225764Y659488D01*
X225764Y659489D02*
X225684Y659487D01*
X225604Y659481D01*
X225524Y659471D01*
X225445Y659458D01*
X225366Y659440D01*
X225289Y659419D01*
X225213Y659393D01*
X225138Y659364D01*
X225064Y659332D01*
X224992Y659296D01*
X224922Y659256D01*
X224855Y659213D01*
X224789Y659167D01*
X224726Y659117D01*
X224665Y659065D01*
X224606Y659010D01*
X224551Y658951D01*
X224499Y658891D01*
X224449Y658827D01*
X224403Y658761D01*
X224360Y658694D01*
X224320Y658624D01*
X224284Y658552D01*
X224252Y658478D01*
X224223Y658404D01*
X224197Y658327D01*
X224176Y658250D01*
X224158Y658171D01*
X224145Y658092D01*
X224135Y658012D01*
X224129Y657932D01*
X224127Y657852D01*
X224127Y655396D01*
X220853Y655396D01*
X220853Y659488D01*
X228219Y662711D02*
X228219Y665167D01*
X228217Y665245D01*
X228212Y665323D01*
X228202Y665400D01*
X228189Y665477D01*
X228173Y665553D01*
X228153Y665628D01*
X228129Y665702D01*
X228102Y665775D01*
X228071Y665847D01*
X228037Y665917D01*
X228000Y665986D01*
X227959Y666052D01*
X227915Y666117D01*
X227869Y666179D01*
X227819Y666239D01*
X227767Y666297D01*
X227712Y666352D01*
X227654Y666404D01*
X227594Y666454D01*
X227532Y666500D01*
X227467Y666544D01*
X227401Y666585D01*
X227332Y666622D01*
X227262Y666656D01*
X227190Y666687D01*
X227117Y666714D01*
X227043Y666738D01*
X226968Y666758D01*
X226892Y666774D01*
X226815Y666787D01*
X226738Y666797D01*
X226660Y666802D01*
X226582Y666804D01*
X225764Y666804D01*
X225684Y666802D01*
X225604Y666796D01*
X225524Y666786D01*
X225445Y666773D01*
X225366Y666755D01*
X225289Y666734D01*
X225213Y666708D01*
X225138Y666679D01*
X225064Y666647D01*
X224992Y666611D01*
X224922Y666571D01*
X224855Y666528D01*
X224789Y666482D01*
X224726Y666432D01*
X224665Y666380D01*
X224606Y666325D01*
X224551Y666266D01*
X224499Y666206D01*
X224449Y666142D01*
X224403Y666076D01*
X224360Y666009D01*
X224320Y665939D01*
X224284Y665867D01*
X224252Y665793D01*
X224223Y665719D01*
X224197Y665642D01*
X224176Y665565D01*
X224158Y665486D01*
X224145Y665407D01*
X224135Y665327D01*
X224129Y665247D01*
X224127Y665167D01*
X224127Y662711D01*
X220853Y662711D01*
X220853Y666804D01*
D11*
X50038Y602178D02*
X33782Y602178D01*
X33782Y606693D02*
X33782Y597662D01*
X33782Y613640D02*
X50038Y613640D01*
X50038Y611834D02*
X50038Y615447D01*
X33782Y615447D02*
X33782Y611834D01*
X33782Y622290D02*
X50038Y622290D01*
X42813Y627709D02*
X33782Y622290D01*
X42813Y627709D02*
X33782Y633127D01*
X50038Y633127D01*
X50038Y640938D02*
X50038Y648163D01*
X50038Y640938D02*
X33782Y640938D01*
X33782Y648163D01*
X41007Y646357D02*
X41007Y640938D01*
X33782Y654547D02*
X50038Y654547D01*
X33782Y654547D02*
X33782Y659063D01*
X33784Y659196D01*
X33790Y659328D01*
X33800Y659460D01*
X33813Y659592D01*
X33831Y659724D01*
X33852Y659854D01*
X33877Y659985D01*
X33906Y660114D01*
X33939Y660242D01*
X33975Y660370D01*
X34015Y660496D01*
X34059Y660621D01*
X34107Y660745D01*
X34158Y660867D01*
X34213Y660988D01*
X34271Y661107D01*
X34333Y661225D01*
X34398Y661340D01*
X34467Y661454D01*
X34538Y661565D01*
X34614Y661674D01*
X34692Y661781D01*
X34773Y661886D01*
X34858Y661988D01*
X34945Y662088D01*
X35035Y662185D01*
X35128Y662280D01*
X35224Y662371D01*
X35322Y662460D01*
X35423Y662546D01*
X35527Y662629D01*
X35633Y662709D01*
X35741Y662785D01*
X35851Y662859D01*
X35964Y662929D01*
X36078Y662996D01*
X36195Y663059D01*
X36313Y663119D01*
X36433Y663176D01*
X36555Y663229D01*
X36678Y663278D01*
X36802Y663324D01*
X36928Y663366D01*
X37055Y663404D01*
X37183Y663439D01*
X37312Y663470D01*
X37441Y663497D01*
X37572Y663520D01*
X37703Y663540D01*
X37835Y663555D01*
X37967Y663567D01*
X38099Y663575D01*
X38232Y663579D01*
X38364Y663579D01*
X38497Y663575D01*
X38629Y663567D01*
X38761Y663555D01*
X38893Y663540D01*
X39024Y663520D01*
X39155Y663497D01*
X39284Y663470D01*
X39413Y663439D01*
X39541Y663404D01*
X39668Y663366D01*
X39794Y663324D01*
X39918Y663278D01*
X40041Y663229D01*
X40163Y663176D01*
X40283Y663119D01*
X40401Y663059D01*
X40518Y662996D01*
X40632Y662929D01*
X40745Y662859D01*
X40855Y662785D01*
X40963Y662709D01*
X41069Y662629D01*
X41173Y662546D01*
X41274Y662460D01*
X41372Y662371D01*
X41468Y662280D01*
X41561Y662185D01*
X41651Y662088D01*
X41738Y661988D01*
X41823Y661886D01*
X41904Y661781D01*
X41982Y661674D01*
X42058Y661565D01*
X42129Y661454D01*
X42198Y661340D01*
X42263Y661225D01*
X42325Y661107D01*
X42383Y660988D01*
X42438Y660867D01*
X42489Y660745D01*
X42537Y660621D01*
X42581Y660496D01*
X42621Y660370D01*
X42657Y660242D01*
X42690Y660114D01*
X42719Y659985D01*
X42744Y659854D01*
X42765Y659724D01*
X42783Y659592D01*
X42796Y659460D01*
X42806Y659328D01*
X42812Y659196D01*
X42814Y659063D01*
X42813Y659063D02*
X42813Y654547D01*
X42813Y659966D02*
X50038Y663578D01*
D12*
X292100Y635000D03*
X317500Y635000D03*
D13*
X197104Y698500D02*
X183896Y698500D01*
X183896Y673100D02*
X197104Y673100D01*
X260096Y673100D02*
X273304Y673100D01*
X273304Y698500D02*
X260096Y698500D01*
X197104Y647700D02*
X183896Y647700D01*
X183896Y622300D02*
X197104Y622300D01*
X260096Y647700D02*
X273304Y647700D01*
X273304Y622300D02*
X260096Y622300D01*
D14*
X317500Y571500D03*
X317500Y596900D03*
D15*
X88900Y584200D03*
X88900Y736600D03*
X139700Y584200D03*
X139700Y736600D03*
D16*
X190500Y546100D03*
X38100Y546100D03*
D13*
X342900Y717296D02*
X342900Y730504D01*
X292100Y730504D02*
X292100Y717296D01*
X317500Y705104D02*
X317500Y691896D01*
D17*
X266700Y533400D03*
X241300Y533400D03*
X241300Y508000D03*
M02*
